%TF.GenerationSoftware,KiCad,Pcbnew,(5.1.10)-1*%
%TF.CreationDate,2021-11-06T01:00:33+01:00*%
%TF.ProjectId,xlAnchor,786c416e-6368-46f7-922e-6b696361645f,rev?*%
%TF.SameCoordinates,Original*%
%TF.FileFunction,Legend,Top*%
%TF.FilePolarity,Positive*%
%FSLAX46Y46*%
G04 Gerber Fmt 4.6, Leading zero omitted, Abs format (unit mm)*
G04 Created by KiCad (PCBNEW (5.1.10)-1) date 2021-11-06 01:00:33*
%MOMM*%
%LPD*%
G01*
G04 APERTURE LIST*
%ADD10C,0.150000*%
%ADD11C,0.010000*%
%ADD12C,0.500000*%
%ADD13C,0.120000*%
G04 APERTURE END LIST*
D10*
X140268928Y-19086904D02*
X139887976Y-19086904D01*
X139887976Y-18286904D01*
X140535595Y-19086904D02*
X140535595Y-18553571D01*
X140535595Y-18286904D02*
X140497500Y-18325000D01*
X140535595Y-18363095D01*
X140573690Y-18325000D01*
X140535595Y-18286904D01*
X140535595Y-18363095D01*
X141259404Y-19048809D02*
X141183214Y-19086904D01*
X141030833Y-19086904D01*
X140954642Y-19048809D01*
X140916547Y-19010714D01*
X140878452Y-18934523D01*
X140878452Y-18705952D01*
X140916547Y-18629761D01*
X140954642Y-18591666D01*
X141030833Y-18553571D01*
X141183214Y-18553571D01*
X141259404Y-18591666D01*
X141907023Y-19048809D02*
X141830833Y-19086904D01*
X141678452Y-19086904D01*
X141602261Y-19048809D01*
X141564166Y-18972619D01*
X141564166Y-18667857D01*
X141602261Y-18591666D01*
X141678452Y-18553571D01*
X141830833Y-18553571D01*
X141907023Y-18591666D01*
X141945119Y-18667857D01*
X141945119Y-18744047D01*
X141564166Y-18820238D01*
X142287976Y-18553571D02*
X142287976Y-19086904D01*
X142287976Y-18629761D02*
X142326071Y-18591666D01*
X142402261Y-18553571D01*
X142516547Y-18553571D01*
X142592738Y-18591666D01*
X142630833Y-18667857D01*
X142630833Y-19086904D01*
X142973690Y-19048809D02*
X143049880Y-19086904D01*
X143202261Y-19086904D01*
X143278452Y-19048809D01*
X143316547Y-18972619D01*
X143316547Y-18934523D01*
X143278452Y-18858333D01*
X143202261Y-18820238D01*
X143087976Y-18820238D01*
X143011785Y-18782142D01*
X142973690Y-18705952D01*
X142973690Y-18667857D01*
X143011785Y-18591666D01*
X143087976Y-18553571D01*
X143202261Y-18553571D01*
X143278452Y-18591666D01*
X143964166Y-19048809D02*
X143887976Y-19086904D01*
X143735595Y-19086904D01*
X143659404Y-19048809D01*
X143621309Y-18972619D01*
X143621309Y-18667857D01*
X143659404Y-18591666D01*
X143735595Y-18553571D01*
X143887976Y-18553571D01*
X143964166Y-18591666D01*
X144002261Y-18667857D01*
X144002261Y-18744047D01*
X143621309Y-18820238D01*
X144687976Y-19086904D02*
X144687976Y-18286904D01*
X144687976Y-19048809D02*
X144611785Y-19086904D01*
X144459404Y-19086904D01*
X144383214Y-19048809D01*
X144345119Y-19010714D01*
X144307023Y-18934523D01*
X144307023Y-18705952D01*
X144345119Y-18629761D01*
X144383214Y-18591666D01*
X144459404Y-18553571D01*
X144611785Y-18553571D01*
X144687976Y-18591666D01*
X146021309Y-18553571D02*
X146021309Y-19086904D01*
X145678452Y-18553571D02*
X145678452Y-18972619D01*
X145716547Y-19048809D01*
X145792738Y-19086904D01*
X145907023Y-19086904D01*
X145983214Y-19048809D01*
X146021309Y-19010714D01*
X146402261Y-18553571D02*
X146402261Y-19086904D01*
X146402261Y-18629761D02*
X146440357Y-18591666D01*
X146516547Y-18553571D01*
X146630833Y-18553571D01*
X146707023Y-18591666D01*
X146745119Y-18667857D01*
X146745119Y-19086904D01*
X147468928Y-19086904D02*
X147468928Y-18286904D01*
X147468928Y-19048809D02*
X147392738Y-19086904D01*
X147240357Y-19086904D01*
X147164166Y-19048809D01*
X147126071Y-19010714D01*
X147087976Y-18934523D01*
X147087976Y-18705952D01*
X147126071Y-18629761D01*
X147164166Y-18591666D01*
X147240357Y-18553571D01*
X147392738Y-18553571D01*
X147468928Y-18591666D01*
X148154642Y-19048809D02*
X148078452Y-19086904D01*
X147926071Y-19086904D01*
X147849880Y-19048809D01*
X147811785Y-18972619D01*
X147811785Y-18667857D01*
X147849880Y-18591666D01*
X147926071Y-18553571D01*
X148078452Y-18553571D01*
X148154642Y-18591666D01*
X148192738Y-18667857D01*
X148192738Y-18744047D01*
X147811785Y-18820238D01*
X148535595Y-19086904D02*
X148535595Y-18553571D01*
X148535595Y-18705952D02*
X148573690Y-18629761D01*
X148611785Y-18591666D01*
X148687976Y-18553571D01*
X148764166Y-18553571D01*
X140345119Y-20360714D02*
X140307023Y-20398809D01*
X140192738Y-20436904D01*
X140116547Y-20436904D01*
X140002261Y-20398809D01*
X139926071Y-20322619D01*
X139887976Y-20246428D01*
X139849880Y-20094047D01*
X139849880Y-19979761D01*
X139887976Y-19827380D01*
X139926071Y-19751190D01*
X140002261Y-19675000D01*
X140116547Y-19636904D01*
X140192738Y-19636904D01*
X140307023Y-19675000D01*
X140345119Y-19713095D01*
X141145119Y-20360714D02*
X141107023Y-20398809D01*
X140992738Y-20436904D01*
X140916547Y-20436904D01*
X140802261Y-20398809D01*
X140726071Y-20322619D01*
X140687976Y-20246428D01*
X140649880Y-20094047D01*
X140649880Y-19979761D01*
X140687976Y-19827380D01*
X140726071Y-19751190D01*
X140802261Y-19675000D01*
X140916547Y-19636904D01*
X140992738Y-19636904D01*
X141107023Y-19675000D01*
X141145119Y-19713095D01*
X142364166Y-20017857D02*
X142478452Y-20055952D01*
X142516547Y-20094047D01*
X142554642Y-20170238D01*
X142554642Y-20284523D01*
X142516547Y-20360714D01*
X142478452Y-20398809D01*
X142402261Y-20436904D01*
X142097500Y-20436904D01*
X142097500Y-19636904D01*
X142364166Y-19636904D01*
X142440357Y-19675000D01*
X142478452Y-19713095D01*
X142516547Y-19789285D01*
X142516547Y-19865476D01*
X142478452Y-19941666D01*
X142440357Y-19979761D01*
X142364166Y-20017857D01*
X142097500Y-20017857D01*
X143049880Y-20055952D02*
X143049880Y-20436904D01*
X142783214Y-19636904D02*
X143049880Y-20055952D01*
X143316547Y-19636904D01*
X143583214Y-20132142D02*
X144192738Y-20132142D01*
X144573690Y-20436904D02*
X144573690Y-19636904D01*
X145030833Y-20436904D01*
X145030833Y-19636904D01*
X145868928Y-20360714D02*
X145830833Y-20398809D01*
X145716547Y-20436904D01*
X145640357Y-20436904D01*
X145526071Y-20398809D01*
X145449880Y-20322619D01*
X145411785Y-20246428D01*
X145373690Y-20094047D01*
X145373690Y-19979761D01*
X145411785Y-19827380D01*
X145449880Y-19751190D01*
X145526071Y-19675000D01*
X145640357Y-19636904D01*
X145716547Y-19636904D01*
X145830833Y-19675000D01*
X145868928Y-19713095D01*
X146211785Y-20132142D02*
X146821309Y-20132142D01*
X147164166Y-20398809D02*
X147278452Y-20436904D01*
X147468928Y-20436904D01*
X147545119Y-20398809D01*
X147583214Y-20360714D01*
X147621309Y-20284523D01*
X147621309Y-20208333D01*
X147583214Y-20132142D01*
X147545119Y-20094047D01*
X147468928Y-20055952D01*
X147316547Y-20017857D01*
X147240357Y-19979761D01*
X147202261Y-19941666D01*
X147164166Y-19865476D01*
X147164166Y-19789285D01*
X147202261Y-19713095D01*
X147240357Y-19675000D01*
X147316547Y-19636904D01*
X147507023Y-19636904D01*
X147621309Y-19675000D01*
X147926071Y-20208333D02*
X148307023Y-20208333D01*
X147849880Y-20436904D02*
X148116547Y-19636904D01*
X148383214Y-20436904D01*
X149602261Y-19903571D02*
X149602261Y-20436904D01*
X149411785Y-19598809D02*
X149221309Y-20170238D01*
X149716547Y-20170238D01*
X150021309Y-20360714D02*
X150059404Y-20398809D01*
X150021309Y-20436904D01*
X149983214Y-20398809D01*
X150021309Y-20360714D01*
X150021309Y-20436904D01*
X150554642Y-19636904D02*
X150630833Y-19636904D01*
X150707023Y-19675000D01*
X150745119Y-19713095D01*
X150783214Y-19789285D01*
X150821309Y-19941666D01*
X150821309Y-20132142D01*
X150783214Y-20284523D01*
X150745119Y-20360714D01*
X150707023Y-20398809D01*
X150630833Y-20436904D01*
X150554642Y-20436904D01*
X150478452Y-20398809D01*
X150440357Y-20360714D01*
X150402261Y-20284523D01*
X150364166Y-20132142D01*
X150364166Y-19941666D01*
X150402261Y-19789285D01*
X150440357Y-19713095D01*
X150478452Y-19675000D01*
X150554642Y-19636904D01*
X124086904Y-44314285D02*
X123553571Y-43895238D01*
X123553571Y-44314285D02*
X124086904Y-43895238D01*
X124086904Y-43209523D02*
X124086904Y-43590476D01*
X123286904Y-43590476D01*
X124086904Y-42828571D02*
X124048809Y-42904761D01*
X124010714Y-42942857D01*
X123934523Y-42980952D01*
X123705952Y-42980952D01*
X123629761Y-42942857D01*
X123591666Y-42904761D01*
X123553571Y-42828571D01*
X123553571Y-42714285D01*
X123591666Y-42638095D01*
X123629761Y-42600000D01*
X123705952Y-42561904D01*
X123934523Y-42561904D01*
X124010714Y-42600000D01*
X124048809Y-42638095D01*
X124086904Y-42714285D01*
X124086904Y-42828571D01*
X124048809Y-41876190D02*
X124086904Y-41952380D01*
X124086904Y-42104761D01*
X124048809Y-42180952D01*
X124010714Y-42219047D01*
X123934523Y-42257142D01*
X123705952Y-42257142D01*
X123629761Y-42219047D01*
X123591666Y-42180952D01*
X123553571Y-42104761D01*
X123553571Y-41952380D01*
X123591666Y-41876190D01*
X124086904Y-41190476D02*
X123667857Y-41190476D01*
X123591666Y-41228571D01*
X123553571Y-41304761D01*
X123553571Y-41457142D01*
X123591666Y-41533333D01*
X124048809Y-41190476D02*
X124086904Y-41266666D01*
X124086904Y-41457142D01*
X124048809Y-41533333D01*
X123972619Y-41571428D01*
X123896428Y-41571428D01*
X123820238Y-41533333D01*
X123782142Y-41457142D01*
X123782142Y-41266666D01*
X123744047Y-41190476D01*
X124086904Y-40695238D02*
X124048809Y-40771428D01*
X123972619Y-40809523D01*
X123286904Y-40809523D01*
X124086904Y-40390476D02*
X123553571Y-40390476D01*
X123286904Y-40390476D02*
X123325000Y-40428571D01*
X123363095Y-40390476D01*
X123325000Y-40352380D01*
X123286904Y-40390476D01*
X123363095Y-40390476D01*
X123553571Y-40085714D02*
X123553571Y-39666666D01*
X124086904Y-40085714D01*
X124086904Y-39666666D01*
X124086904Y-39019047D02*
X123667857Y-39019047D01*
X123591666Y-39057142D01*
X123553571Y-39133333D01*
X123553571Y-39285714D01*
X123591666Y-39361904D01*
X124048809Y-39019047D02*
X124086904Y-39095238D01*
X124086904Y-39285714D01*
X124048809Y-39361904D01*
X123972619Y-39400000D01*
X123896428Y-39400000D01*
X123820238Y-39361904D01*
X123782142Y-39285714D01*
X123782142Y-39095238D01*
X123744047Y-39019047D01*
X123553571Y-38752380D02*
X123553571Y-38447619D01*
X123286904Y-38638095D02*
X123972619Y-38638095D01*
X124048809Y-38600000D01*
X124086904Y-38523809D01*
X124086904Y-38447619D01*
X124086904Y-38180952D02*
X123553571Y-38180952D01*
X123286904Y-38180952D02*
X123325000Y-38219047D01*
X123363095Y-38180952D01*
X123325000Y-38142857D01*
X123286904Y-38180952D01*
X123363095Y-38180952D01*
X124086904Y-37685714D02*
X124048809Y-37761904D01*
X124010714Y-37800000D01*
X123934523Y-37838095D01*
X123705952Y-37838095D01*
X123629761Y-37800000D01*
X123591666Y-37761904D01*
X123553571Y-37685714D01*
X123553571Y-37571428D01*
X123591666Y-37495238D01*
X123629761Y-37457142D01*
X123705952Y-37419047D01*
X123934523Y-37419047D01*
X124010714Y-37457142D01*
X124048809Y-37495238D01*
X124086904Y-37571428D01*
X124086904Y-37685714D01*
X123553571Y-37076190D02*
X124086904Y-37076190D01*
X123629761Y-37076190D02*
X123591666Y-37038095D01*
X123553571Y-36961904D01*
X123553571Y-36847619D01*
X123591666Y-36771428D01*
X123667857Y-36733333D01*
X124086904Y-36733333D01*
X123858333Y-35780952D02*
X123858333Y-35400000D01*
X124086904Y-35857142D02*
X123286904Y-35590476D01*
X124086904Y-35323809D01*
X123553571Y-35057142D02*
X124086904Y-35057142D01*
X123629761Y-35057142D02*
X123591666Y-35019047D01*
X123553571Y-34942857D01*
X123553571Y-34828571D01*
X123591666Y-34752380D01*
X123667857Y-34714285D01*
X124086904Y-34714285D01*
X124048809Y-33990476D02*
X124086904Y-34066666D01*
X124086904Y-34219047D01*
X124048809Y-34295238D01*
X124010714Y-34333333D01*
X123934523Y-34371428D01*
X123705952Y-34371428D01*
X123629761Y-34333333D01*
X123591666Y-34295238D01*
X123553571Y-34219047D01*
X123553571Y-34066666D01*
X123591666Y-33990476D01*
X124086904Y-33647619D02*
X123286904Y-33647619D01*
X124086904Y-33304761D02*
X123667857Y-33304761D01*
X123591666Y-33342857D01*
X123553571Y-33419047D01*
X123553571Y-33533333D01*
X123591666Y-33609523D01*
X123629761Y-33647619D01*
X124086904Y-32809523D02*
X124048809Y-32885714D01*
X124010714Y-32923809D01*
X123934523Y-32961904D01*
X123705952Y-32961904D01*
X123629761Y-32923809D01*
X123591666Y-32885714D01*
X123553571Y-32809523D01*
X123553571Y-32695238D01*
X123591666Y-32619047D01*
X123629761Y-32580952D01*
X123705952Y-32542857D01*
X123934523Y-32542857D01*
X124010714Y-32580952D01*
X124048809Y-32619047D01*
X124086904Y-32695238D01*
X124086904Y-32809523D01*
X124086904Y-32200000D02*
X123553571Y-32200000D01*
X123705952Y-32200000D02*
X123629761Y-32161904D01*
X123591666Y-32123809D01*
X123553571Y-32047619D01*
X123553571Y-31971428D01*
X123553571Y-31171428D02*
X124086904Y-30980952D01*
X123553571Y-30790476D01*
X124086904Y-30066666D02*
X124086904Y-30523809D01*
X124086904Y-30295238D02*
X123286904Y-30295238D01*
X123401190Y-30371428D01*
X123477380Y-30447619D01*
X123515476Y-30523809D01*
X124010714Y-29723809D02*
X124048809Y-29685714D01*
X124086904Y-29723809D01*
X124048809Y-29761904D01*
X124010714Y-29723809D01*
X124086904Y-29723809D01*
X123286904Y-29190476D02*
X123286904Y-29114285D01*
X123325000Y-29038095D01*
X123363095Y-29000000D01*
X123439285Y-28961904D01*
X123591666Y-28923809D01*
X123782142Y-28923809D01*
X123934523Y-28961904D01*
X124010714Y-29000000D01*
X124048809Y-29038095D01*
X124086904Y-29114285D01*
X124086904Y-29190476D01*
X124048809Y-29266666D01*
X124010714Y-29304761D01*
X123934523Y-29342857D01*
X123782142Y-29380952D01*
X123591666Y-29380952D01*
X123439285Y-29342857D01*
X123363095Y-29304761D01*
X123325000Y-29266666D01*
X123286904Y-29190476D01*
X124903571Y-48561904D02*
X125551190Y-48561904D01*
X125627380Y-48600000D01*
X125665476Y-48638095D01*
X125703571Y-48714285D01*
X125703571Y-48828571D01*
X125665476Y-48904761D01*
X125398809Y-48561904D02*
X125436904Y-48638095D01*
X125436904Y-48790476D01*
X125398809Y-48866666D01*
X125360714Y-48904761D01*
X125284523Y-48942857D01*
X125055952Y-48942857D01*
X124979761Y-48904761D01*
X124941666Y-48866666D01*
X124903571Y-48790476D01*
X124903571Y-48638095D01*
X124941666Y-48561904D01*
X125436904Y-48180952D02*
X124903571Y-48180952D01*
X124636904Y-48180952D02*
X124675000Y-48219047D01*
X124713095Y-48180952D01*
X124675000Y-48142857D01*
X124636904Y-48180952D01*
X124713095Y-48180952D01*
X124903571Y-47914285D02*
X124903571Y-47609523D01*
X124636904Y-47800000D02*
X125322619Y-47800000D01*
X125398809Y-47761904D01*
X125436904Y-47685714D01*
X125436904Y-47609523D01*
X125436904Y-47342857D02*
X124636904Y-47342857D01*
X125436904Y-47000000D02*
X125017857Y-47000000D01*
X124941666Y-47038095D01*
X124903571Y-47114285D01*
X124903571Y-47228571D01*
X124941666Y-47304761D01*
X124979761Y-47342857D01*
X124903571Y-46276190D02*
X125436904Y-46276190D01*
X124903571Y-46619047D02*
X125322619Y-46619047D01*
X125398809Y-46580952D01*
X125436904Y-46504761D01*
X125436904Y-46390476D01*
X125398809Y-46314285D01*
X125360714Y-46276190D01*
X125436904Y-45895238D02*
X124636904Y-45895238D01*
X124941666Y-45895238D02*
X124903571Y-45819047D01*
X124903571Y-45666666D01*
X124941666Y-45590476D01*
X124979761Y-45552380D01*
X125055952Y-45514285D01*
X125284523Y-45514285D01*
X125360714Y-45552380D01*
X125398809Y-45590476D01*
X125436904Y-45666666D01*
X125436904Y-45819047D01*
X125398809Y-45895238D01*
X125360714Y-45171428D02*
X125398809Y-45133333D01*
X125436904Y-45171428D01*
X125398809Y-45209523D01*
X125360714Y-45171428D01*
X125436904Y-45171428D01*
X125398809Y-44447619D02*
X125436904Y-44523809D01*
X125436904Y-44676190D01*
X125398809Y-44752380D01*
X125360714Y-44790476D01*
X125284523Y-44828571D01*
X125055952Y-44828571D01*
X124979761Y-44790476D01*
X124941666Y-44752380D01*
X124903571Y-44676190D01*
X124903571Y-44523809D01*
X124941666Y-44447619D01*
X125436904Y-43990476D02*
X125398809Y-44066666D01*
X125360714Y-44104761D01*
X125284523Y-44142857D01*
X125055952Y-44142857D01*
X124979761Y-44104761D01*
X124941666Y-44066666D01*
X124903571Y-43990476D01*
X124903571Y-43876190D01*
X124941666Y-43800000D01*
X124979761Y-43761904D01*
X125055952Y-43723809D01*
X125284523Y-43723809D01*
X125360714Y-43761904D01*
X125398809Y-43800000D01*
X125436904Y-43876190D01*
X125436904Y-43990476D01*
X125436904Y-43380952D02*
X124903571Y-43380952D01*
X124979761Y-43380952D02*
X124941666Y-43342857D01*
X124903571Y-43266666D01*
X124903571Y-43152380D01*
X124941666Y-43076190D01*
X125017857Y-43038095D01*
X125436904Y-43038095D01*
X125017857Y-43038095D02*
X124941666Y-43000000D01*
X124903571Y-42923809D01*
X124903571Y-42809523D01*
X124941666Y-42733333D01*
X125017857Y-42695238D01*
X125436904Y-42695238D01*
X124598809Y-41742857D02*
X125627380Y-42428571D01*
X125360714Y-41019047D02*
X125398809Y-41057142D01*
X125436904Y-41171428D01*
X125436904Y-41247619D01*
X125398809Y-41361904D01*
X125322619Y-41438095D01*
X125246428Y-41476190D01*
X125094047Y-41514285D01*
X124979761Y-41514285D01*
X124827380Y-41476190D01*
X124751190Y-41438095D01*
X124675000Y-41361904D01*
X124636904Y-41247619D01*
X124636904Y-41171428D01*
X124675000Y-41057142D01*
X124713095Y-41019047D01*
X125436904Y-40561904D02*
X125398809Y-40638095D01*
X125322619Y-40676190D01*
X124636904Y-40676190D01*
X125398809Y-39952380D02*
X125436904Y-40028571D01*
X125436904Y-40180952D01*
X125398809Y-40257142D01*
X125322619Y-40295238D01*
X125017857Y-40295238D01*
X124941666Y-40257142D01*
X124903571Y-40180952D01*
X124903571Y-40028571D01*
X124941666Y-39952380D01*
X125017857Y-39914285D01*
X125094047Y-39914285D01*
X125170238Y-40295238D01*
X125436904Y-39571428D02*
X124903571Y-39571428D01*
X124979761Y-39571428D02*
X124941666Y-39533333D01*
X124903571Y-39457142D01*
X124903571Y-39342857D01*
X124941666Y-39266666D01*
X125017857Y-39228571D01*
X125436904Y-39228571D01*
X125017857Y-39228571D02*
X124941666Y-39190476D01*
X124903571Y-39114285D01*
X124903571Y-39000000D01*
X124941666Y-38923809D01*
X125017857Y-38885714D01*
X125436904Y-38885714D01*
X125398809Y-38200000D02*
X125436904Y-38276190D01*
X125436904Y-38428571D01*
X125398809Y-38504761D01*
X125322619Y-38542857D01*
X125017857Y-38542857D01*
X124941666Y-38504761D01*
X124903571Y-38428571D01*
X124903571Y-38276190D01*
X124941666Y-38200000D01*
X125017857Y-38161904D01*
X125094047Y-38161904D01*
X125170238Y-38542857D01*
X124903571Y-37819047D02*
X125436904Y-37819047D01*
X124979761Y-37819047D02*
X124941666Y-37780952D01*
X124903571Y-37704761D01*
X124903571Y-37590476D01*
X124941666Y-37514285D01*
X125017857Y-37476190D01*
X125436904Y-37476190D01*
X125398809Y-37133333D02*
X125436904Y-37057142D01*
X125436904Y-36904761D01*
X125398809Y-36828571D01*
X125322619Y-36790476D01*
X125284523Y-36790476D01*
X125208333Y-36828571D01*
X125170238Y-36904761D01*
X125170238Y-37019047D01*
X125132142Y-37095238D01*
X125055952Y-37133333D01*
X125017857Y-37133333D01*
X124941666Y-37095238D01*
X124903571Y-37019047D01*
X124903571Y-36904761D01*
X124941666Y-36828571D01*
X125017857Y-36447619D02*
X125017857Y-36180952D01*
X125436904Y-36066666D02*
X125436904Y-36447619D01*
X124636904Y-36447619D01*
X124636904Y-36066666D01*
X125436904Y-35609523D02*
X125398809Y-35685714D01*
X125322619Y-35723809D01*
X124636904Y-35723809D01*
X124903571Y-35419047D02*
X124903571Y-35114285D01*
X125436904Y-35304761D02*
X124751190Y-35304761D01*
X124675000Y-35266666D01*
X124636904Y-35190476D01*
X124636904Y-35114285D01*
X125436904Y-34733333D02*
X125398809Y-34809523D01*
X125322619Y-34847619D01*
X124636904Y-34847619D01*
X125398809Y-34123809D02*
X125436904Y-34200000D01*
X125436904Y-34352380D01*
X125398809Y-34428571D01*
X125322619Y-34466666D01*
X125017857Y-34466666D01*
X124941666Y-34428571D01*
X124903571Y-34352380D01*
X124903571Y-34200000D01*
X124941666Y-34123809D01*
X125017857Y-34085714D01*
X125094047Y-34085714D01*
X125170238Y-34466666D01*
X125436904Y-33742857D02*
X124903571Y-33742857D01*
X124636904Y-33742857D02*
X124675000Y-33780952D01*
X124713095Y-33742857D01*
X124675000Y-33704761D01*
X124636904Y-33742857D01*
X124713095Y-33742857D01*
X124903571Y-33361904D02*
X125436904Y-33361904D01*
X124979761Y-33361904D02*
X124941666Y-33323809D01*
X124903571Y-33247619D01*
X124903571Y-33133333D01*
X124941666Y-33057142D01*
X125017857Y-33019047D01*
X125436904Y-33019047D01*
X124598809Y-32066666D02*
X125627380Y-32752380D01*
X125436904Y-31876190D02*
X124903571Y-31457142D01*
X124903571Y-31876190D02*
X125436904Y-31457142D01*
X125436904Y-30771428D02*
X125436904Y-31152380D01*
X124636904Y-31152380D01*
X125436904Y-30390476D02*
X125398809Y-30466666D01*
X125360714Y-30504761D01*
X125284523Y-30542857D01*
X125055952Y-30542857D01*
X124979761Y-30504761D01*
X124941666Y-30466666D01*
X124903571Y-30390476D01*
X124903571Y-30276190D01*
X124941666Y-30200000D01*
X124979761Y-30161904D01*
X125055952Y-30123809D01*
X125284523Y-30123809D01*
X125360714Y-30161904D01*
X125398809Y-30200000D01*
X125436904Y-30276190D01*
X125436904Y-30390476D01*
X125398809Y-29438095D02*
X125436904Y-29514285D01*
X125436904Y-29666666D01*
X125398809Y-29742857D01*
X125360714Y-29780952D01*
X125284523Y-29819047D01*
X125055952Y-29819047D01*
X124979761Y-29780952D01*
X124941666Y-29742857D01*
X124903571Y-29666666D01*
X124903571Y-29514285D01*
X124941666Y-29438095D01*
X125436904Y-28752380D02*
X125017857Y-28752380D01*
X124941666Y-28790476D01*
X124903571Y-28866666D01*
X124903571Y-29019047D01*
X124941666Y-29095238D01*
X125398809Y-28752380D02*
X125436904Y-28828571D01*
X125436904Y-29019047D01*
X125398809Y-29095238D01*
X125322619Y-29133333D01*
X125246428Y-29133333D01*
X125170238Y-29095238D01*
X125132142Y-29019047D01*
X125132142Y-28828571D01*
X125094047Y-28752380D01*
X125436904Y-28257142D02*
X125398809Y-28333333D01*
X125322619Y-28371428D01*
X124636904Y-28371428D01*
X125436904Y-27952380D02*
X124903571Y-27952380D01*
X124636904Y-27952380D02*
X124675000Y-27990476D01*
X124713095Y-27952380D01*
X124675000Y-27914285D01*
X124636904Y-27952380D01*
X124713095Y-27952380D01*
X124903571Y-27647619D02*
X124903571Y-27228571D01*
X125436904Y-27647619D01*
X125436904Y-27228571D01*
X125436904Y-26580952D02*
X125017857Y-26580952D01*
X124941666Y-26619047D01*
X124903571Y-26695238D01*
X124903571Y-26847619D01*
X124941666Y-26923809D01*
X125398809Y-26580952D02*
X125436904Y-26657142D01*
X125436904Y-26847619D01*
X125398809Y-26923809D01*
X125322619Y-26961904D01*
X125246428Y-26961904D01*
X125170238Y-26923809D01*
X125132142Y-26847619D01*
X125132142Y-26657142D01*
X125094047Y-26580952D01*
X124903571Y-26314285D02*
X124903571Y-26009523D01*
X124636904Y-26200000D02*
X125322619Y-26200000D01*
X125398809Y-26161904D01*
X125436904Y-26085714D01*
X125436904Y-26009523D01*
X125436904Y-25742857D02*
X124903571Y-25742857D01*
X124636904Y-25742857D02*
X124675000Y-25780952D01*
X124713095Y-25742857D01*
X124675000Y-25704761D01*
X124636904Y-25742857D01*
X124713095Y-25742857D01*
X125436904Y-25247619D02*
X125398809Y-25323809D01*
X125360714Y-25361904D01*
X125284523Y-25400000D01*
X125055952Y-25400000D01*
X124979761Y-25361904D01*
X124941666Y-25323809D01*
X124903571Y-25247619D01*
X124903571Y-25133333D01*
X124941666Y-25057142D01*
X124979761Y-25019047D01*
X125055952Y-24980952D01*
X125284523Y-24980952D01*
X125360714Y-25019047D01*
X125398809Y-25057142D01*
X125436904Y-25133333D01*
X125436904Y-25247619D01*
X124903571Y-24638095D02*
X125436904Y-24638095D01*
X124979761Y-24638095D02*
X124941666Y-24600000D01*
X124903571Y-24523809D01*
X124903571Y-24409523D01*
X124941666Y-24333333D01*
X125017857Y-24295238D01*
X125436904Y-24295238D01*
X154702380Y-56371428D02*
X154702380Y-56847619D01*
X155178571Y-56895238D01*
X155130952Y-56847619D01*
X155083333Y-56752380D01*
X155083333Y-56514285D01*
X155130952Y-56419047D01*
X155178571Y-56371428D01*
X155273809Y-56323809D01*
X155511904Y-56323809D01*
X155607142Y-56371428D01*
X155654761Y-56419047D01*
X155702380Y-56514285D01*
X155702380Y-56752380D01*
X155654761Y-56847619D01*
X155607142Y-56895238D01*
X154702380Y-56038095D02*
X155702380Y-55704761D01*
X154702380Y-55371428D01*
X155702380Y-54276190D02*
X154702380Y-54276190D01*
X154702380Y-54038095D01*
X154750000Y-53895238D01*
X154845238Y-53800000D01*
X154940476Y-53752380D01*
X155130952Y-53704761D01*
X155273809Y-53704761D01*
X155464285Y-53752380D01*
X155559523Y-53800000D01*
X155654761Y-53895238D01*
X155702380Y-54038095D01*
X155702380Y-54276190D01*
X155607142Y-52704761D02*
X155654761Y-52752380D01*
X155702380Y-52895238D01*
X155702380Y-52990476D01*
X155654761Y-53133333D01*
X155559523Y-53228571D01*
X155464285Y-53276190D01*
X155273809Y-53323809D01*
X155130952Y-53323809D01*
X154940476Y-53276190D01*
X154845238Y-53228571D01*
X154750000Y-53133333D01*
X154702380Y-52990476D01*
X154702380Y-52895238D01*
X154750000Y-52752380D01*
X154797619Y-52704761D01*
X152744047Y-57821428D02*
X153505952Y-57821428D01*
X153125000Y-58202380D02*
X153125000Y-57440476D01*
X153121428Y-52180952D02*
X153121428Y-51419047D01*
X113452380Y-62452380D02*
X112976190Y-62785714D01*
X113452380Y-63023809D02*
X112452380Y-63023809D01*
X112452380Y-62642857D01*
X112500000Y-62547619D01*
X112547619Y-62500000D01*
X112642857Y-62452380D01*
X112785714Y-62452380D01*
X112880952Y-62500000D01*
X112928571Y-62547619D01*
X112976190Y-62642857D01*
X112976190Y-63023809D01*
X112928571Y-62023809D02*
X112928571Y-61690476D01*
X113452380Y-61547619D02*
X113452380Y-62023809D01*
X112452380Y-62023809D01*
X112452380Y-61547619D01*
X113404761Y-61166666D02*
X113452380Y-61023809D01*
X113452380Y-60785714D01*
X113404761Y-60690476D01*
X113357142Y-60642857D01*
X113261904Y-60595238D01*
X113166666Y-60595238D01*
X113071428Y-60642857D01*
X113023809Y-60690476D01*
X112976190Y-60785714D01*
X112928571Y-60976190D01*
X112880952Y-61071428D01*
X112833333Y-61119047D01*
X112738095Y-61166666D01*
X112642857Y-61166666D01*
X112547619Y-61119047D01*
X112500000Y-61071428D01*
X112452380Y-60976190D01*
X112452380Y-60738095D01*
X112500000Y-60595238D01*
X112928571Y-60166666D02*
X112928571Y-59833333D01*
X113452380Y-59690476D02*
X113452380Y-60166666D01*
X112452380Y-60166666D01*
X112452380Y-59690476D01*
X112452380Y-59404761D02*
X112452380Y-58833333D01*
X113452380Y-59119047D02*
X112452380Y-59119047D01*
X112928571Y-55842857D02*
X112976190Y-55700000D01*
X113023809Y-55652380D01*
X113119047Y-55604761D01*
X113261904Y-55604761D01*
X113357142Y-55652380D01*
X113404761Y-55700000D01*
X113452380Y-55795238D01*
X113452380Y-56176190D01*
X112452380Y-56176190D01*
X112452380Y-55842857D01*
X112500000Y-55747619D01*
X112547619Y-55700000D01*
X112642857Y-55652380D01*
X112738095Y-55652380D01*
X112833333Y-55700000D01*
X112880952Y-55747619D01*
X112928571Y-55842857D01*
X112928571Y-56176190D01*
X112452380Y-55319047D02*
X112452380Y-54747619D01*
X113452380Y-55033333D02*
X112452380Y-55033333D01*
X112452380Y-53747619D02*
X113452380Y-53509523D01*
X112738095Y-53319047D01*
X113452380Y-53128571D01*
X112452380Y-52890476D01*
X113166666Y-52557142D02*
X113166666Y-52080952D01*
X113452380Y-52652380D02*
X112452380Y-52319047D01*
X113452380Y-51985714D01*
X113452380Y-51652380D02*
X112452380Y-51652380D01*
X113452380Y-51080952D02*
X112880952Y-51509523D01*
X112452380Y-51080952D02*
X113023809Y-51652380D01*
X112928571Y-50652380D02*
X112928571Y-50319047D01*
X113452380Y-50176190D02*
X113452380Y-50652380D01*
X112452380Y-50652380D01*
X112452380Y-50176190D01*
D11*
%TO.C,REF\u002A\u002A*%
G36*
X136539043Y-16310835D02*
G01*
X136562065Y-16348245D01*
X136597534Y-16407514D01*
X136643996Y-16486118D01*
X136699996Y-16581538D01*
X136764081Y-16691250D01*
X136834796Y-16812734D01*
X136910687Y-16943468D01*
X136990299Y-17080930D01*
X137072178Y-17222598D01*
X137154870Y-17365951D01*
X137236921Y-17508467D01*
X137316876Y-17647624D01*
X137393281Y-17780901D01*
X137464682Y-17905776D01*
X137529624Y-18019727D01*
X137586653Y-18120233D01*
X137634315Y-18204772D01*
X137671155Y-18270822D01*
X137695720Y-18315862D01*
X137706554Y-18337370D01*
X137706951Y-18338714D01*
X137693501Y-18356965D01*
X137656114Y-18384882D01*
X137599235Y-18419725D01*
X137527312Y-18458754D01*
X137452015Y-18495843D01*
X137349560Y-18540817D01*
X137241817Y-18581226D01*
X137125073Y-18617969D01*
X136995618Y-18651942D01*
X136849740Y-18684044D01*
X136683726Y-18715173D01*
X136493866Y-18746227D01*
X136297469Y-18775145D01*
X136126834Y-18800800D01*
X135983545Y-18826198D01*
X135864008Y-18852602D01*
X135764630Y-18881273D01*
X135681818Y-18913473D01*
X135611978Y-18950465D01*
X135551518Y-18993512D01*
X135496845Y-19043875D01*
X135479214Y-19062583D01*
X135441000Y-19106139D01*
X135412732Y-19141682D01*
X135399618Y-19162583D01*
X135399268Y-19164297D01*
X135394680Y-19174806D01*
X135378758Y-19174924D01*
X135348266Y-19163254D01*
X135299968Y-19138396D01*
X135230627Y-19098952D01*
X135182439Y-19070587D01*
X135110583Y-19026247D01*
X135054742Y-18988279D01*
X135018667Y-18959416D01*
X135006113Y-18942388D01*
X135006121Y-18942264D01*
X135013906Y-18926037D01*
X135035892Y-18885400D01*
X135070803Y-18822567D01*
X135117363Y-18739752D01*
X135174295Y-18639172D01*
X135240323Y-18523040D01*
X135314172Y-18393571D01*
X135394564Y-18252980D01*
X135480224Y-18103482D01*
X135569876Y-17947292D01*
X135662243Y-17786624D01*
X135756049Y-17623693D01*
X135850018Y-17460713D01*
X135942874Y-17299900D01*
X136033340Y-17143468D01*
X136120141Y-16993633D01*
X136202000Y-16852608D01*
X136277641Y-16722609D01*
X136345787Y-16605849D01*
X136405163Y-16504545D01*
X136454493Y-16420911D01*
X136492500Y-16357162D01*
X136517907Y-16315511D01*
X136529440Y-16298175D01*
X136529923Y-16297805D01*
X136539043Y-16310835D01*
G37*
X136539043Y-16310835D02*
X136562065Y-16348245D01*
X136597534Y-16407514D01*
X136643996Y-16486118D01*
X136699996Y-16581538D01*
X136764081Y-16691250D01*
X136834796Y-16812734D01*
X136910687Y-16943468D01*
X136990299Y-17080930D01*
X137072178Y-17222598D01*
X137154870Y-17365951D01*
X137236921Y-17508467D01*
X137316876Y-17647624D01*
X137393281Y-17780901D01*
X137464682Y-17905776D01*
X137529624Y-18019727D01*
X137586653Y-18120233D01*
X137634315Y-18204772D01*
X137671155Y-18270822D01*
X137695720Y-18315862D01*
X137706554Y-18337370D01*
X137706951Y-18338714D01*
X137693501Y-18356965D01*
X137656114Y-18384882D01*
X137599235Y-18419725D01*
X137527312Y-18458754D01*
X137452015Y-18495843D01*
X137349560Y-18540817D01*
X137241817Y-18581226D01*
X137125073Y-18617969D01*
X136995618Y-18651942D01*
X136849740Y-18684044D01*
X136683726Y-18715173D01*
X136493866Y-18746227D01*
X136297469Y-18775145D01*
X136126834Y-18800800D01*
X135983545Y-18826198D01*
X135864008Y-18852602D01*
X135764630Y-18881273D01*
X135681818Y-18913473D01*
X135611978Y-18950465D01*
X135551518Y-18993512D01*
X135496845Y-19043875D01*
X135479214Y-19062583D01*
X135441000Y-19106139D01*
X135412732Y-19141682D01*
X135399618Y-19162583D01*
X135399268Y-19164297D01*
X135394680Y-19174806D01*
X135378758Y-19174924D01*
X135348266Y-19163254D01*
X135299968Y-19138396D01*
X135230627Y-19098952D01*
X135182439Y-19070587D01*
X135110583Y-19026247D01*
X135054742Y-18988279D01*
X135018667Y-18959416D01*
X135006113Y-18942388D01*
X135006121Y-18942264D01*
X135013906Y-18926037D01*
X135035892Y-18885400D01*
X135070803Y-18822567D01*
X135117363Y-18739752D01*
X135174295Y-18639172D01*
X135240323Y-18523040D01*
X135314172Y-18393571D01*
X135394564Y-18252980D01*
X135480224Y-18103482D01*
X135569876Y-17947292D01*
X135662243Y-17786624D01*
X135756049Y-17623693D01*
X135850018Y-17460713D01*
X135942874Y-17299900D01*
X136033340Y-17143468D01*
X136120141Y-16993633D01*
X136202000Y-16852608D01*
X136277641Y-16722609D01*
X136345787Y-16605849D01*
X136405163Y-16504545D01*
X136454493Y-16420911D01*
X136492500Y-16357162D01*
X136517907Y-16315511D01*
X136529440Y-16298175D01*
X136529923Y-16297805D01*
X136539043Y-16310835D01*
G36*
X138362528Y-19459619D02*
G01*
X138373908Y-19478693D01*
X138399488Y-19522421D01*
X138438002Y-19588619D01*
X138488186Y-19675102D01*
X138548775Y-19779685D01*
X138618503Y-19900183D01*
X138696107Y-20034412D01*
X138780320Y-20180187D01*
X138869879Y-20335323D01*
X138961998Y-20495000D01*
X139056076Y-20658117D01*
X139146402Y-20814709D01*
X139231665Y-20962506D01*
X139310557Y-21099240D01*
X139381769Y-21222642D01*
X139443991Y-21330444D01*
X139495913Y-21420377D01*
X139536228Y-21490173D01*
X139563624Y-21537564D01*
X139576507Y-21559786D01*
X139597507Y-21597330D01*
X139608925Y-21620831D01*
X139609551Y-21624920D01*
X139595636Y-21617242D01*
X139556941Y-21595203D01*
X139495487Y-21559971D01*
X139413298Y-21512711D01*
X139312396Y-21454589D01*
X139194805Y-21386771D01*
X139062546Y-21310424D01*
X138917642Y-21226714D01*
X138762117Y-21136806D01*
X138597992Y-21041867D01*
X138535549Y-21005732D01*
X138368487Y-20909083D01*
X138209074Y-20816938D01*
X138059355Y-20730475D01*
X137921376Y-20650871D01*
X137797185Y-20579305D01*
X137688827Y-20516955D01*
X137598348Y-20464998D01*
X137527796Y-20424613D01*
X137479215Y-20396978D01*
X137454654Y-20383272D01*
X137452085Y-20381974D01*
X137459569Y-20370220D01*
X137485614Y-20338795D01*
X137527559Y-20290594D01*
X137582746Y-20228510D01*
X137648517Y-20155439D01*
X137722212Y-20074276D01*
X137801173Y-19987916D01*
X137882740Y-19899253D01*
X137964254Y-19811182D01*
X138043057Y-19726599D01*
X138116490Y-19648397D01*
X138181893Y-19579472D01*
X138236608Y-19522719D01*
X138277977Y-19481032D01*
X138292164Y-19467363D01*
X138339180Y-19423201D01*
X138362528Y-19459619D01*
G37*
X138362528Y-19459619D02*
X138373908Y-19478693D01*
X138399488Y-19522421D01*
X138438002Y-19588619D01*
X138488186Y-19675102D01*
X138548775Y-19779685D01*
X138618503Y-19900183D01*
X138696107Y-20034412D01*
X138780320Y-20180187D01*
X138869879Y-20335323D01*
X138961998Y-20495000D01*
X139056076Y-20658117D01*
X139146402Y-20814709D01*
X139231665Y-20962506D01*
X139310557Y-21099240D01*
X139381769Y-21222642D01*
X139443991Y-21330444D01*
X139495913Y-21420377D01*
X139536228Y-21490173D01*
X139563624Y-21537564D01*
X139576507Y-21559786D01*
X139597507Y-21597330D01*
X139608925Y-21620831D01*
X139609551Y-21624920D01*
X139595636Y-21617242D01*
X139556941Y-21595203D01*
X139495487Y-21559971D01*
X139413298Y-21512711D01*
X139312396Y-21454589D01*
X139194805Y-21386771D01*
X139062546Y-21310424D01*
X138917642Y-21226714D01*
X138762117Y-21136806D01*
X138597992Y-21041867D01*
X138535549Y-21005732D01*
X138368487Y-20909083D01*
X138209074Y-20816938D01*
X138059355Y-20730475D01*
X137921376Y-20650871D01*
X137797185Y-20579305D01*
X137688827Y-20516955D01*
X137598348Y-20464998D01*
X137527796Y-20424613D01*
X137479215Y-20396978D01*
X137454654Y-20383272D01*
X137452085Y-20381974D01*
X137459569Y-20370220D01*
X137485614Y-20338795D01*
X137527559Y-20290594D01*
X137582746Y-20228510D01*
X137648517Y-20155439D01*
X137722212Y-20074276D01*
X137801173Y-19987916D01*
X137882740Y-19899253D01*
X137964254Y-19811182D01*
X138043057Y-19726599D01*
X138116490Y-19648397D01*
X138181893Y-19579472D01*
X138236608Y-19522719D01*
X138277977Y-19481032D01*
X138292164Y-19467363D01*
X138339180Y-19423201D01*
X138362528Y-19459619D01*
G36*
X134697094Y-19516158D02*
G01*
X134729619Y-19528736D01*
X134779193Y-19553712D01*
X134850374Y-19592876D01*
X134855916Y-19595988D01*
X134921474Y-19633476D01*
X134976798Y-19666319D01*
X135016455Y-19691205D01*
X135035012Y-19704820D01*
X135035531Y-19705487D01*
X135031048Y-19724390D01*
X135010486Y-19766605D01*
X134975183Y-19829832D01*
X134926480Y-19911772D01*
X134865718Y-20010122D01*
X134794236Y-20122585D01*
X134776445Y-20150165D01*
X134730093Y-20226699D01*
X134696342Y-20292556D01*
X134678153Y-20341782D01*
X134676286Y-20351507D01*
X134677115Y-20394312D01*
X134686394Y-20462209D01*
X134702968Y-20550843D01*
X134725680Y-20655859D01*
X134753373Y-20772902D01*
X134784890Y-20897616D01*
X134819075Y-21025645D01*
X134854771Y-21152634D01*
X134890821Y-21274228D01*
X134926068Y-21386072D01*
X134959356Y-21483810D01*
X134989528Y-21563087D01*
X135010561Y-21610122D01*
X135035337Y-21660225D01*
X135058730Y-21708168D01*
X135059997Y-21710793D01*
X135098699Y-21759220D01*
X135155184Y-21791828D01*
X135220939Y-21807454D01*
X135287451Y-21804937D01*
X135346205Y-21783114D01*
X135379258Y-21754382D01*
X135426859Y-21675583D01*
X135461739Y-21577378D01*
X135480877Y-21469779D01*
X135483588Y-21408780D01*
X135472670Y-21294935D01*
X135440624Y-21200660D01*
X135385726Y-21121379D01*
X135368607Y-21103733D01*
X135317661Y-21054235D01*
X135314163Y-20704362D01*
X135310664Y-20354489D01*
X135399818Y-20219531D01*
X135441654Y-20158445D01*
X135481945Y-20103493D01*
X135514943Y-20062336D01*
X135529126Y-20047192D01*
X135569281Y-20009810D01*
X135623665Y-20039098D01*
X135658039Y-20060084D01*
X135676846Y-20076378D01*
X135678049Y-20079307D01*
X135690903Y-20091728D01*
X135712896Y-20100977D01*
X135734150Y-20109313D01*
X135766694Y-20125149D01*
X135813322Y-20150033D01*
X135876829Y-20185509D01*
X135960008Y-20233123D01*
X136065653Y-20294422D01*
X136123062Y-20327932D01*
X136190594Y-20368071D01*
X136234885Y-20396659D01*
X136259855Y-20417039D01*
X136269423Y-20432553D01*
X136267508Y-20446546D01*
X136265911Y-20449796D01*
X136250376Y-20470266D01*
X136217136Y-20508665D01*
X136170062Y-20560696D01*
X136113028Y-20622066D01*
X136063700Y-20674090D01*
X135950030Y-20797567D01*
X135861105Y-20904591D01*
X135796134Y-20996240D01*
X135754321Y-21073588D01*
X135740217Y-21112866D01*
X135734392Y-21147249D01*
X135728375Y-21205899D01*
X135722696Y-21282117D01*
X135717884Y-21369202D01*
X135715619Y-21424268D01*
X135712459Y-21519464D01*
X135711069Y-21589062D01*
X135711858Y-21638409D01*
X135715235Y-21672854D01*
X135721608Y-21697743D01*
X135731387Y-21718425D01*
X135739067Y-21731053D01*
X135783421Y-21779726D01*
X135840574Y-21813645D01*
X135900708Y-21828438D01*
X135945773Y-21823086D01*
X135986576Y-21799930D01*
X136037724Y-21758462D01*
X136092042Y-21705912D01*
X136142357Y-21649516D01*
X136181494Y-21596505D01*
X136195905Y-21570889D01*
X136217491Y-21535814D01*
X136256753Y-21482389D01*
X136310102Y-21414789D01*
X136373952Y-21337190D01*
X136444715Y-21253768D01*
X136518804Y-21168698D01*
X136592632Y-21086155D01*
X136662611Y-21010316D01*
X136725155Y-20945356D01*
X136774260Y-20897669D01*
X136828779Y-20850032D01*
X136874642Y-20814908D01*
X136906811Y-20795949D01*
X136917489Y-20793864D01*
X136933853Y-20802274D01*
X136974671Y-20824846D01*
X137037586Y-20860224D01*
X137120244Y-20907054D01*
X137220289Y-20963981D01*
X137335366Y-21029649D01*
X137463119Y-21102703D01*
X137601194Y-21181788D01*
X137747234Y-21265548D01*
X137898884Y-21352629D01*
X138053790Y-21441676D01*
X138209595Y-21531332D01*
X138363944Y-21620243D01*
X138514482Y-21707054D01*
X138658854Y-21790409D01*
X138794704Y-21868954D01*
X138919677Y-21941333D01*
X139031417Y-22006190D01*
X139127570Y-22062171D01*
X139205779Y-22107920D01*
X139263689Y-22142083D01*
X139298946Y-22163304D01*
X139309165Y-22169963D01*
X139295402Y-22171280D01*
X139252104Y-22172559D01*
X139180714Y-22173796D01*
X139082673Y-22174983D01*
X138959422Y-22176115D01*
X138812403Y-22177186D01*
X138643057Y-22178189D01*
X138452826Y-22179119D01*
X138243151Y-22179968D01*
X138015473Y-22180732D01*
X137771235Y-22181403D01*
X137511877Y-22181976D01*
X137238841Y-22182444D01*
X136953568Y-22182802D01*
X136657500Y-22183042D01*
X136352079Y-22183159D01*
X136223924Y-22183171D01*
X133123970Y-22183171D01*
X133345053Y-21799847D01*
X133391856Y-21718680D01*
X133452102Y-21614166D01*
X133523778Y-21489801D01*
X133604869Y-21349082D01*
X133693362Y-21195503D01*
X133787240Y-21032562D01*
X133884491Y-20863754D01*
X133983100Y-20692575D01*
X134081053Y-20522521D01*
X134105825Y-20479512D01*
X134196152Y-20322857D01*
X134282289Y-20173803D01*
X134362942Y-20034568D01*
X134436816Y-19907371D01*
X134502617Y-19794432D01*
X134559050Y-19697968D01*
X134604821Y-19620200D01*
X134638635Y-19563346D01*
X134659198Y-19529625D01*
X134664953Y-19521040D01*
X134677058Y-19514189D01*
X134697094Y-19516158D01*
G37*
X134697094Y-19516158D02*
X134729619Y-19528736D01*
X134779193Y-19553712D01*
X134850374Y-19592876D01*
X134855916Y-19595988D01*
X134921474Y-19633476D01*
X134976798Y-19666319D01*
X135016455Y-19691205D01*
X135035012Y-19704820D01*
X135035531Y-19705487D01*
X135031048Y-19724390D01*
X135010486Y-19766605D01*
X134975183Y-19829832D01*
X134926480Y-19911772D01*
X134865718Y-20010122D01*
X134794236Y-20122585D01*
X134776445Y-20150165D01*
X134730093Y-20226699D01*
X134696342Y-20292556D01*
X134678153Y-20341782D01*
X134676286Y-20351507D01*
X134677115Y-20394312D01*
X134686394Y-20462209D01*
X134702968Y-20550843D01*
X134725680Y-20655859D01*
X134753373Y-20772902D01*
X134784890Y-20897616D01*
X134819075Y-21025645D01*
X134854771Y-21152634D01*
X134890821Y-21274228D01*
X134926068Y-21386072D01*
X134959356Y-21483810D01*
X134989528Y-21563087D01*
X135010561Y-21610122D01*
X135035337Y-21660225D01*
X135058730Y-21708168D01*
X135059997Y-21710793D01*
X135098699Y-21759220D01*
X135155184Y-21791828D01*
X135220939Y-21807454D01*
X135287451Y-21804937D01*
X135346205Y-21783114D01*
X135379258Y-21754382D01*
X135426859Y-21675583D01*
X135461739Y-21577378D01*
X135480877Y-21469779D01*
X135483588Y-21408780D01*
X135472670Y-21294935D01*
X135440624Y-21200660D01*
X135385726Y-21121379D01*
X135368607Y-21103733D01*
X135317661Y-21054235D01*
X135314163Y-20704362D01*
X135310664Y-20354489D01*
X135399818Y-20219531D01*
X135441654Y-20158445D01*
X135481945Y-20103493D01*
X135514943Y-20062336D01*
X135529126Y-20047192D01*
X135569281Y-20009810D01*
X135623665Y-20039098D01*
X135658039Y-20060084D01*
X135676846Y-20076378D01*
X135678049Y-20079307D01*
X135690903Y-20091728D01*
X135712896Y-20100977D01*
X135734150Y-20109313D01*
X135766694Y-20125149D01*
X135813322Y-20150033D01*
X135876829Y-20185509D01*
X135960008Y-20233123D01*
X136065653Y-20294422D01*
X136123062Y-20327932D01*
X136190594Y-20368071D01*
X136234885Y-20396659D01*
X136259855Y-20417039D01*
X136269423Y-20432553D01*
X136267508Y-20446546D01*
X136265911Y-20449796D01*
X136250376Y-20470266D01*
X136217136Y-20508665D01*
X136170062Y-20560696D01*
X136113028Y-20622066D01*
X136063700Y-20674090D01*
X135950030Y-20797567D01*
X135861105Y-20904591D01*
X135796134Y-20996240D01*
X135754321Y-21073588D01*
X135740217Y-21112866D01*
X135734392Y-21147249D01*
X135728375Y-21205899D01*
X135722696Y-21282117D01*
X135717884Y-21369202D01*
X135715619Y-21424268D01*
X135712459Y-21519464D01*
X135711069Y-21589062D01*
X135711858Y-21638409D01*
X135715235Y-21672854D01*
X135721608Y-21697743D01*
X135731387Y-21718425D01*
X135739067Y-21731053D01*
X135783421Y-21779726D01*
X135840574Y-21813645D01*
X135900708Y-21828438D01*
X135945773Y-21823086D01*
X135986576Y-21799930D01*
X136037724Y-21758462D01*
X136092042Y-21705912D01*
X136142357Y-21649516D01*
X136181494Y-21596505D01*
X136195905Y-21570889D01*
X136217491Y-21535814D01*
X136256753Y-21482389D01*
X136310102Y-21414789D01*
X136373952Y-21337190D01*
X136444715Y-21253768D01*
X136518804Y-21168698D01*
X136592632Y-21086155D01*
X136662611Y-21010316D01*
X136725155Y-20945356D01*
X136774260Y-20897669D01*
X136828779Y-20850032D01*
X136874642Y-20814908D01*
X136906811Y-20795949D01*
X136917489Y-20793864D01*
X136933853Y-20802274D01*
X136974671Y-20824846D01*
X137037586Y-20860224D01*
X137120244Y-20907054D01*
X137220289Y-20963981D01*
X137335366Y-21029649D01*
X137463119Y-21102703D01*
X137601194Y-21181788D01*
X137747234Y-21265548D01*
X137898884Y-21352629D01*
X138053790Y-21441676D01*
X138209595Y-21531332D01*
X138363944Y-21620243D01*
X138514482Y-21707054D01*
X138658854Y-21790409D01*
X138794704Y-21868954D01*
X138919677Y-21941333D01*
X139031417Y-22006190D01*
X139127570Y-22062171D01*
X139205779Y-22107920D01*
X139263689Y-22142083D01*
X139298946Y-22163304D01*
X139309165Y-22169963D01*
X139295402Y-22171280D01*
X139252104Y-22172559D01*
X139180714Y-22173796D01*
X139082673Y-22174983D01*
X138959422Y-22176115D01*
X138812403Y-22177186D01*
X138643057Y-22178189D01*
X138452826Y-22179119D01*
X138243151Y-22179968D01*
X138015473Y-22180732D01*
X137771235Y-22181403D01*
X137511877Y-22181976D01*
X137238841Y-22182444D01*
X136953568Y-22182802D01*
X136657500Y-22183042D01*
X136352079Y-22183159D01*
X136223924Y-22183171D01*
X133123970Y-22183171D01*
X133345053Y-21799847D01*
X133391856Y-21718680D01*
X133452102Y-21614166D01*
X133523778Y-21489801D01*
X133604869Y-21349082D01*
X133693362Y-21195503D01*
X133787240Y-21032562D01*
X133884491Y-20863754D01*
X133983100Y-20692575D01*
X134081053Y-20522521D01*
X134105825Y-20479512D01*
X134196152Y-20322857D01*
X134282289Y-20173803D01*
X134362942Y-20034568D01*
X134436816Y-19907371D01*
X134502617Y-19794432D01*
X134559050Y-19697968D01*
X134604821Y-19620200D01*
X134638635Y-19563346D01*
X134659198Y-19529625D01*
X134664953Y-19521040D01*
X134677058Y-19514189D01*
X134697094Y-19516158D01*
%TO.C,G\u002A\u002A\u002A*%
G36*
X130616778Y-22081111D02*
G01*
X130616778Y-21855333D01*
X131802111Y-21855333D01*
X131802111Y-20641778D01*
X132027889Y-20641778D01*
X132027889Y-22081111D01*
X130616778Y-22081111D01*
G37*
X130616778Y-22081111D02*
X130616778Y-21855333D01*
X131802111Y-21855333D01*
X131802111Y-20641778D01*
X132027889Y-20641778D01*
X132027889Y-22081111D01*
X130616778Y-22081111D01*
G36*
X131802111Y-18101778D02*
G01*
X131802111Y-16888222D01*
X130616778Y-16888222D01*
X130616778Y-16662444D01*
X132027889Y-16662444D01*
X132027889Y-18101778D01*
X131802111Y-18101778D01*
G37*
X131802111Y-18101778D02*
X131802111Y-16888222D01*
X130616778Y-16888222D01*
X130616778Y-16662444D01*
X132027889Y-16662444D01*
X132027889Y-18101778D01*
X131802111Y-18101778D01*
G36*
X131223530Y-20416026D02*
G01*
X131140956Y-20502215D01*
X130582533Y-19944317D01*
X130437663Y-19799079D01*
X130306769Y-19666888D01*
X130194927Y-19552946D01*
X130107214Y-19462460D01*
X130048706Y-19400633D01*
X130024479Y-19372671D01*
X130024111Y-19371771D01*
X130043283Y-19348788D01*
X130097388Y-19291281D01*
X130181308Y-19204498D01*
X130289925Y-19093689D01*
X130418122Y-18964102D01*
X130560781Y-18820987D01*
X130573676Y-18808101D01*
X131123241Y-18259078D01*
X131209428Y-18341650D01*
X131295615Y-18424223D01*
X130822452Y-18898000D01*
X130349289Y-19371778D01*
X130827697Y-19850807D01*
X131306105Y-20329837D01*
X131223530Y-20416026D01*
G37*
X131223530Y-20416026D02*
X131140956Y-20502215D01*
X130582533Y-19944317D01*
X130437663Y-19799079D01*
X130306769Y-19666888D01*
X130194927Y-19552946D01*
X130107214Y-19462460D01*
X130048706Y-19400633D01*
X130024479Y-19372671D01*
X130024111Y-19371771D01*
X130043283Y-19348788D01*
X130097388Y-19291281D01*
X130181308Y-19204498D01*
X130289925Y-19093689D01*
X130418122Y-18964102D01*
X130560781Y-18820987D01*
X130573676Y-18808101D01*
X131123241Y-18259078D01*
X131209428Y-18341650D01*
X131295615Y-18424223D01*
X130822452Y-18898000D01*
X130349289Y-19371778D01*
X130827697Y-19850807D01*
X131306105Y-20329837D01*
X131223530Y-20416026D01*
G36*
X130400300Y-21204233D02*
G01*
X130354105Y-21257436D01*
X130347725Y-21263551D01*
X130276228Y-21330719D01*
X129318556Y-20374289D01*
X128839719Y-20852504D01*
X128360883Y-21330719D01*
X128289386Y-21263551D01*
X128241059Y-21210044D01*
X128218173Y-21168753D01*
X128217889Y-21165753D01*
X128237122Y-21138524D01*
X128291396Y-21077072D01*
X128375572Y-20986817D01*
X128484511Y-20873178D01*
X128613074Y-20741575D01*
X128756122Y-20597429D01*
X128768222Y-20585333D01*
X129318556Y-20035543D01*
X129868889Y-20585333D01*
X130012888Y-20730261D01*
X130142819Y-20863085D01*
X130253544Y-20978385D01*
X130339924Y-21070742D01*
X130396819Y-21134737D01*
X130419090Y-21164948D01*
X130419222Y-21165753D01*
X130400300Y-21204233D01*
G37*
X130400300Y-21204233D02*
X130354105Y-21257436D01*
X130347725Y-21263551D01*
X130276228Y-21330719D01*
X129318556Y-20374289D01*
X128839719Y-20852504D01*
X128360883Y-21330719D01*
X128289386Y-21263551D01*
X128241059Y-21210044D01*
X128218173Y-21168753D01*
X128217889Y-21165753D01*
X128237122Y-21138524D01*
X128291396Y-21077072D01*
X128375572Y-20986817D01*
X128484511Y-20873178D01*
X128613074Y-20741575D01*
X128756122Y-20597429D01*
X128768222Y-20585333D01*
X129318556Y-20035543D01*
X129868889Y-20585333D01*
X130012888Y-20730261D01*
X130142819Y-20863085D01*
X130253544Y-20978385D01*
X130339924Y-21070742D01*
X130396819Y-21134737D01*
X130419090Y-21164948D01*
X130419222Y-21165753D01*
X130400300Y-21204233D01*
G36*
X130399989Y-17605031D02*
G01*
X130345715Y-17666483D01*
X130261539Y-17756738D01*
X130152600Y-17870377D01*
X130024037Y-18001980D01*
X129880989Y-18146126D01*
X129868889Y-18158222D01*
X129318556Y-18708012D01*
X128768222Y-18158222D01*
X128624223Y-18013294D01*
X128494292Y-17880470D01*
X128383567Y-17765170D01*
X128297188Y-17672813D01*
X128240293Y-17608818D01*
X128218021Y-17578607D01*
X128217889Y-17577802D01*
X128236811Y-17539322D01*
X128283007Y-17486119D01*
X128289386Y-17480004D01*
X128360883Y-17412836D01*
X128839719Y-17891051D01*
X129318556Y-18369266D01*
X130276228Y-17412836D01*
X130347725Y-17480004D01*
X130396052Y-17533511D01*
X130418938Y-17574802D01*
X130419222Y-17577802D01*
X130399989Y-17605031D01*
G37*
X130399989Y-17605031D02*
X130345715Y-17666483D01*
X130261539Y-17756738D01*
X130152600Y-17870377D01*
X130024037Y-18001980D01*
X129880989Y-18146126D01*
X129868889Y-18158222D01*
X129318556Y-18708012D01*
X128768222Y-18158222D01*
X128624223Y-18013294D01*
X128494292Y-17880470D01*
X128383567Y-17765170D01*
X128297188Y-17672813D01*
X128240293Y-17608818D01*
X128218021Y-17578607D01*
X128217889Y-17577802D01*
X128236811Y-17539322D01*
X128283007Y-17486119D01*
X128289386Y-17480004D01*
X128360883Y-17412836D01*
X128839719Y-17891051D01*
X129318556Y-18369266D01*
X130276228Y-17412836D01*
X130347725Y-17480004D01*
X130396052Y-17533511D01*
X130418938Y-17574802D01*
X130419222Y-17577802D01*
X130399989Y-17605031D01*
G36*
X128091025Y-19936086D02*
G01*
X127527252Y-20500388D01*
X127442608Y-20415745D01*
X127357965Y-20331102D01*
X127837005Y-19851440D01*
X128316044Y-19371778D01*
X127843633Y-18898753D01*
X127710903Y-18765205D01*
X127592586Y-18644925D01*
X127494200Y-18543623D01*
X127421262Y-18467009D01*
X127379288Y-18420792D01*
X127371222Y-18409783D01*
X127389672Y-18381372D01*
X127434295Y-18334595D01*
X127436541Y-18332475D01*
X127489984Y-18289487D01*
X127528066Y-18271120D01*
X127528535Y-18271111D01*
X127554711Y-18290329D01*
X127615187Y-18344562D01*
X127704585Y-18428678D01*
X127817529Y-18537542D01*
X127948643Y-18666024D01*
X128092550Y-18808989D01*
X128105003Y-18821448D01*
X128654797Y-19371784D01*
X128091025Y-19936086D01*
G37*
X128091025Y-19936086D02*
X127527252Y-20500388D01*
X127442608Y-20415745D01*
X127357965Y-20331102D01*
X127837005Y-19851440D01*
X128316044Y-19371778D01*
X127843633Y-18898753D01*
X127710903Y-18765205D01*
X127592586Y-18644925D01*
X127494200Y-18543623D01*
X127421262Y-18467009D01*
X127379288Y-18420792D01*
X127371222Y-18409783D01*
X127389672Y-18381372D01*
X127434295Y-18334595D01*
X127436541Y-18332475D01*
X127489984Y-18289487D01*
X127528066Y-18271120D01*
X127528535Y-18271111D01*
X127554711Y-18290329D01*
X127615187Y-18344562D01*
X127704585Y-18428678D01*
X127817529Y-18537542D01*
X127948643Y-18666024D01*
X128092550Y-18808989D01*
X128105003Y-18821448D01*
X128654797Y-19371784D01*
X128091025Y-19936086D01*
G36*
X126609222Y-22081111D02*
G01*
X126609222Y-20641778D01*
X126835000Y-20641778D01*
X126835000Y-21855333D01*
X128048556Y-21855333D01*
X128048556Y-22081111D01*
X126609222Y-22081111D01*
G37*
X126609222Y-22081111D02*
X126609222Y-20641778D01*
X126835000Y-20641778D01*
X126835000Y-21855333D01*
X128048556Y-21855333D01*
X128048556Y-22081111D01*
X126609222Y-22081111D01*
G36*
X126863222Y-16888222D02*
G01*
X126863222Y-18101778D01*
X126609222Y-18101778D01*
X126609222Y-16662444D01*
X128048556Y-16662444D01*
X128048556Y-16888222D01*
X126863222Y-16888222D01*
G37*
X126863222Y-16888222D02*
X126863222Y-18101778D01*
X126609222Y-18101778D01*
X126609222Y-16662444D01*
X128048556Y-16662444D01*
X128048556Y-16888222D01*
X126863222Y-16888222D01*
D12*
%TO.C,REF\u002A\u002A*%
X153300000Y-54800000D02*
G75*
G03*
X153300000Y-54800000I-175000J0D01*
G01*
D10*
X154050000Y-57800000D02*
G75*
G03*
X154050000Y-57800000I-925000J0D01*
G01*
X154050000Y-51800000D02*
G75*
G03*
X154050000Y-51800000I-925000J0D01*
G01*
X153125000Y-52800000D02*
X153125000Y-53700000D01*
X153125000Y-54800000D02*
X153125000Y-56800000D01*
X153875000Y-55475000D02*
G75*
G03*
X152450000Y-55550000I-750000J675000D01*
G01*
D13*
%TO.C,R6*%
X129377936Y-64735000D02*
X129832064Y-64735000D01*
X129377936Y-63265000D02*
X129832064Y-63265000D01*
%TO.C,R5*%
X129377936Y-61735000D02*
X129832064Y-61735000D01*
X129377936Y-60265000D02*
X129832064Y-60265000D01*
%TO.C,JP6*%
X139200000Y-27000000D02*
X139200000Y-29800000D01*
X139200000Y-29800000D02*
X137200000Y-29800000D01*
X137200000Y-29800000D02*
X137200000Y-27000000D01*
X137200000Y-27000000D02*
X139200000Y-27000000D01*
%TO.C,JP5*%
X102600000Y-52000000D02*
X105400000Y-52000000D01*
X105400000Y-52000000D02*
X105400000Y-54000000D01*
X105400000Y-54000000D02*
X102600000Y-54000000D01*
X102600000Y-54000000D02*
X102600000Y-52000000D01*
%TO.C,J3*%
X139400000Y-55100000D02*
X142000000Y-55100000D01*
X139400000Y-69800000D02*
X139400000Y-55100000D01*
X148600000Y-55100000D02*
X148600000Y-57000000D01*
X145900000Y-55100000D02*
X148600000Y-55100000D01*
X148600000Y-69800000D02*
X139400000Y-69800000D01*
X148600000Y-61000000D02*
X148600000Y-69800000D01*
X139200000Y-55950000D02*
X139200000Y-54900000D01*
X140250000Y-54900000D02*
X139200000Y-54900000D01*
%TO.C,J2*%
X108670000Y-49270000D02*
X110000000Y-49270000D01*
X108670000Y-50600000D02*
X108670000Y-49270000D01*
X108670000Y-51870000D02*
X111330000Y-51870000D01*
X111330000Y-51870000D02*
X111330000Y-64630000D01*
X108670000Y-51870000D02*
X108670000Y-64630000D01*
X108670000Y-64630000D02*
X111330000Y-64630000D01*
%TO.C,D5*%
X143750000Y-51000000D02*
X147650000Y-51000000D01*
X143750000Y-53000000D02*
X147650000Y-53000000D01*
X143750000Y-51000000D02*
X143750000Y-53000000D01*
%TO.C,D4*%
X136860000Y-63040000D02*
X134000000Y-63040000D01*
X136860000Y-64960000D02*
X136860000Y-63040000D01*
X134000000Y-64960000D02*
X136860000Y-64960000D01*
%TO.C,D3*%
X136860000Y-60040000D02*
X134000000Y-60040000D01*
X136860000Y-61960000D02*
X136860000Y-60040000D01*
X134000000Y-61960000D02*
X136860000Y-61960000D01*
%TO.C,C2*%
X141738748Y-38735000D02*
X142261252Y-38735000D01*
X141738748Y-37265000D02*
X142261252Y-37265000D01*
%TO.C,C1*%
X141738748Y-34735000D02*
X142261252Y-34735000D01*
X141738748Y-33265000D02*
X142261252Y-33265000D01*
%TO.C,U3*%
X138100000Y-39410000D02*
X132090000Y-39410000D01*
X135850000Y-32590000D02*
X132090000Y-32590000D01*
X132090000Y-39410000D02*
X132090000Y-38150000D01*
X132090000Y-32590000D02*
X132090000Y-33850000D01*
%TO.C,U2*%
X100200000Y-47000000D02*
X99540000Y-47000000D01*
X116460000Y-26315000D02*
X117140000Y-26315000D01*
X117140000Y-26315000D02*
X117140000Y-45685000D01*
X116460000Y-45685000D02*
X117140000Y-45685000D01*
%TO.C,U1*%
X136780000Y-25040000D02*
X129880000Y-25040000D01*
X136780000Y-22500000D02*
X136780000Y-25040000D01*
D10*
G36*
X156635000Y-21460000D02*
G01*
X155365000Y-21460000D01*
X156000000Y-22095000D01*
X156635000Y-21460000D01*
G37*
X156635000Y-21460000D02*
X155365000Y-21460000D01*
X156000000Y-22095000D01*
X156635000Y-21460000D01*
D13*
X164340000Y-46240000D02*
X164340000Y-24630000D01*
X129880000Y-48360000D02*
X162210000Y-48360000D01*
X136780000Y-22500000D02*
X162210000Y-22500000D01*
X129880000Y-25040000D02*
X129880000Y-48360000D01*
X164340000Y-46230000D02*
G75*
G02*
X162210000Y-48360000I-2130000J0D01*
G01*
X162210000Y-22500000D02*
G75*
G02*
X164340000Y-24630000I0J-2130000D01*
G01*
%TO.C,SW2*%
X121750000Y-54000000D02*
X121750000Y-52500000D01*
X120500000Y-50000000D02*
X116000000Y-50000000D01*
X114750000Y-52500000D02*
X114750000Y-54000000D01*
X116000000Y-56500000D02*
X120500000Y-56500000D01*
%TO.C,SW1*%
X121750000Y-62000000D02*
X121750000Y-60500000D01*
X120500000Y-58000000D02*
X116000000Y-58000000D01*
X114750000Y-60500000D02*
X114750000Y-62000000D01*
X116000000Y-64500000D02*
X120500000Y-64500000D01*
%TO.C,R4*%
X129377936Y-58735000D02*
X129832064Y-58735000D01*
X129377936Y-57265000D02*
X129832064Y-57265000D01*
%TO.C,R3*%
X129377936Y-55735000D02*
X129832064Y-55735000D01*
X129377936Y-54265000D02*
X129832064Y-54265000D01*
%TO.C,R2*%
X124265000Y-52772936D02*
X124265000Y-53227064D01*
X125735000Y-52772936D02*
X125735000Y-53227064D01*
%TO.C,R1*%
X124265000Y-61772936D02*
X124265000Y-62227064D01*
X125735000Y-61772936D02*
X125735000Y-62227064D01*
%TO.C,JP4*%
X120500000Y-28400000D02*
X120500000Y-25600000D01*
X120500000Y-25600000D02*
X122500000Y-25600000D01*
X122500000Y-25600000D02*
X122500000Y-28400000D01*
X122500000Y-28400000D02*
X120500000Y-28400000D01*
%TO.C,JP3*%
X108000000Y-22400000D02*
X108000000Y-19600000D01*
X108000000Y-19600000D02*
X110000000Y-19600000D01*
X110000000Y-19600000D02*
X110000000Y-22400000D01*
X110000000Y-22400000D02*
X108000000Y-22400000D01*
%TO.C,JP2*%
X157000000Y-38600000D02*
X157000000Y-41400000D01*
X157000000Y-41400000D02*
X155000000Y-41400000D01*
X155000000Y-41400000D02*
X155000000Y-38600000D01*
X155000000Y-38600000D02*
X157000000Y-38600000D01*
%TO.C,JP1*%
X154500000Y-38600000D02*
X154500000Y-41400000D01*
X154500000Y-41400000D02*
X152500000Y-41400000D01*
X152500000Y-41400000D02*
X152500000Y-38600000D01*
X152500000Y-38600000D02*
X154500000Y-38600000D01*
%TO.C,J1*%
X112670000Y-18500000D02*
X112670000Y-17170000D01*
X112670000Y-17170000D02*
X114000000Y-17170000D01*
X112670000Y-19770000D02*
X115270000Y-19770000D01*
X115270000Y-19770000D02*
X115270000Y-17170000D01*
X115270000Y-17170000D02*
X125490000Y-17170000D01*
X125490000Y-22370000D02*
X125490000Y-17170000D01*
X112670000Y-22370000D02*
X125490000Y-22370000D01*
X112670000Y-22370000D02*
X112670000Y-19770000D01*
%TO.C,D2*%
X136860000Y-57040000D02*
X134000000Y-57040000D01*
X136860000Y-58960000D02*
X136860000Y-57040000D01*
X134000000Y-58960000D02*
X136860000Y-58960000D01*
%TO.C,D1*%
X136860000Y-54040000D02*
X134000000Y-54040000D01*
X136860000Y-55960000D02*
X136860000Y-54040000D01*
X134000000Y-55960000D02*
X136860000Y-55960000D01*
%TO.C,R6*%
D10*
X129438333Y-62802380D02*
X129105000Y-62326190D01*
X128866904Y-62802380D02*
X128866904Y-61802380D01*
X129247857Y-61802380D01*
X129343095Y-61850000D01*
X129390714Y-61897619D01*
X129438333Y-61992857D01*
X129438333Y-62135714D01*
X129390714Y-62230952D01*
X129343095Y-62278571D01*
X129247857Y-62326190D01*
X128866904Y-62326190D01*
X130295476Y-61802380D02*
X130105000Y-61802380D01*
X130009761Y-61850000D01*
X129962142Y-61897619D01*
X129866904Y-62040476D01*
X129819285Y-62230952D01*
X129819285Y-62611904D01*
X129866904Y-62707142D01*
X129914523Y-62754761D01*
X130009761Y-62802380D01*
X130200238Y-62802380D01*
X130295476Y-62754761D01*
X130343095Y-62707142D01*
X130390714Y-62611904D01*
X130390714Y-62373809D01*
X130343095Y-62278571D01*
X130295476Y-62230952D01*
X130200238Y-62183333D01*
X130009761Y-62183333D01*
X129914523Y-62230952D01*
X129866904Y-62278571D01*
X129819285Y-62373809D01*
%TO.C,R5*%
X129438333Y-59802380D02*
X129105000Y-59326190D01*
X128866904Y-59802380D02*
X128866904Y-58802380D01*
X129247857Y-58802380D01*
X129343095Y-58850000D01*
X129390714Y-58897619D01*
X129438333Y-58992857D01*
X129438333Y-59135714D01*
X129390714Y-59230952D01*
X129343095Y-59278571D01*
X129247857Y-59326190D01*
X128866904Y-59326190D01*
X130343095Y-58802380D02*
X129866904Y-58802380D01*
X129819285Y-59278571D01*
X129866904Y-59230952D01*
X129962142Y-59183333D01*
X130200238Y-59183333D01*
X130295476Y-59230952D01*
X130343095Y-59278571D01*
X130390714Y-59373809D01*
X130390714Y-59611904D01*
X130343095Y-59707142D01*
X130295476Y-59754761D01*
X130200238Y-59802380D01*
X129962142Y-59802380D01*
X129866904Y-59754761D01*
X129819285Y-59707142D01*
%TO.C,JP6*%
X139452380Y-29233333D02*
X140166666Y-29233333D01*
X140309523Y-29280952D01*
X140404761Y-29376190D01*
X140452380Y-29519047D01*
X140452380Y-29614285D01*
X140452380Y-28757142D02*
X139452380Y-28757142D01*
X139452380Y-28376190D01*
X139500000Y-28280952D01*
X139547619Y-28233333D01*
X139642857Y-28185714D01*
X139785714Y-28185714D01*
X139880952Y-28233333D01*
X139928571Y-28280952D01*
X139976190Y-28376190D01*
X139976190Y-28757142D01*
X139452380Y-27328571D02*
X139452380Y-27519047D01*
X139500000Y-27614285D01*
X139547619Y-27661904D01*
X139690476Y-27757142D01*
X139880952Y-27804761D01*
X140261904Y-27804761D01*
X140357142Y-27757142D01*
X140404761Y-27709523D01*
X140452380Y-27614285D01*
X140452380Y-27423809D01*
X140404761Y-27328571D01*
X140357142Y-27280952D01*
X140261904Y-27233333D01*
X140023809Y-27233333D01*
X139928571Y-27280952D01*
X139880952Y-27328571D01*
X139833333Y-27423809D01*
X139833333Y-27614285D01*
X139880952Y-27709523D01*
X139928571Y-27757142D01*
X140023809Y-27804761D01*
%TO.C,JP5*%
X103166666Y-50652380D02*
X103166666Y-51366666D01*
X103119047Y-51509523D01*
X103023809Y-51604761D01*
X102880952Y-51652380D01*
X102785714Y-51652380D01*
X103642857Y-51652380D02*
X103642857Y-50652380D01*
X104023809Y-50652380D01*
X104119047Y-50700000D01*
X104166666Y-50747619D01*
X104214285Y-50842857D01*
X104214285Y-50985714D01*
X104166666Y-51080952D01*
X104119047Y-51128571D01*
X104023809Y-51176190D01*
X103642857Y-51176190D01*
X105119047Y-50652380D02*
X104642857Y-50652380D01*
X104595238Y-51128571D01*
X104642857Y-51080952D01*
X104738095Y-51033333D01*
X104976190Y-51033333D01*
X105071428Y-51080952D01*
X105119047Y-51128571D01*
X105166666Y-51223809D01*
X105166666Y-51461904D01*
X105119047Y-51557142D01*
X105071428Y-51604761D01*
X104976190Y-51652380D01*
X104738095Y-51652380D01*
X104642857Y-51604761D01*
X104595238Y-51557142D01*
%TO.C,J3*%
X149202380Y-64783333D02*
X149916666Y-64783333D01*
X150059523Y-64830952D01*
X150154761Y-64926190D01*
X150202380Y-65069047D01*
X150202380Y-65164285D01*
X149202380Y-64402380D02*
X149202380Y-63783333D01*
X149583333Y-64116666D01*
X149583333Y-63973809D01*
X149630952Y-63878571D01*
X149678571Y-63830952D01*
X149773809Y-63783333D01*
X150011904Y-63783333D01*
X150107142Y-63830952D01*
X150154761Y-63878571D01*
X150202380Y-63973809D01*
X150202380Y-64259523D01*
X150154761Y-64354761D01*
X150107142Y-64402380D01*
%TO.C,J2*%
X109666666Y-47722380D02*
X109666666Y-48436666D01*
X109619047Y-48579523D01*
X109523809Y-48674761D01*
X109380952Y-48722380D01*
X109285714Y-48722380D01*
X110095238Y-47817619D02*
X110142857Y-47770000D01*
X110238095Y-47722380D01*
X110476190Y-47722380D01*
X110571428Y-47770000D01*
X110619047Y-47817619D01*
X110666666Y-47912857D01*
X110666666Y-48008095D01*
X110619047Y-48150952D01*
X110047619Y-48722380D01*
X110666666Y-48722380D01*
%TO.C,D5*%
X145261904Y-50452380D02*
X145261904Y-49452380D01*
X145500000Y-49452380D01*
X145642857Y-49500000D01*
X145738095Y-49595238D01*
X145785714Y-49690476D01*
X145833333Y-49880952D01*
X145833333Y-50023809D01*
X145785714Y-50214285D01*
X145738095Y-50309523D01*
X145642857Y-50404761D01*
X145500000Y-50452380D01*
X145261904Y-50452380D01*
X146738095Y-49452380D02*
X146261904Y-49452380D01*
X146214285Y-49928571D01*
X146261904Y-49880952D01*
X146357142Y-49833333D01*
X146595238Y-49833333D01*
X146690476Y-49880952D01*
X146738095Y-49928571D01*
X146785714Y-50023809D01*
X146785714Y-50261904D01*
X146738095Y-50357142D01*
X146690476Y-50404761D01*
X146595238Y-50452380D01*
X146357142Y-50452380D01*
X146261904Y-50404761D01*
X146214285Y-50357142D01*
%TO.C,D4*%
X137261904Y-64452380D02*
X137261904Y-63452380D01*
X137500000Y-63452380D01*
X137642857Y-63500000D01*
X137738095Y-63595238D01*
X137785714Y-63690476D01*
X137833333Y-63880952D01*
X137833333Y-64023809D01*
X137785714Y-64214285D01*
X137738095Y-64309523D01*
X137642857Y-64404761D01*
X137500000Y-64452380D01*
X137261904Y-64452380D01*
X138690476Y-63785714D02*
X138690476Y-64452380D01*
X138452380Y-63404761D02*
X138214285Y-64119047D01*
X138833333Y-64119047D01*
%TO.C,D3*%
X137261904Y-61452380D02*
X137261904Y-60452380D01*
X137500000Y-60452380D01*
X137642857Y-60500000D01*
X137738095Y-60595238D01*
X137785714Y-60690476D01*
X137833333Y-60880952D01*
X137833333Y-61023809D01*
X137785714Y-61214285D01*
X137738095Y-61309523D01*
X137642857Y-61404761D01*
X137500000Y-61452380D01*
X137261904Y-61452380D01*
X138166666Y-60452380D02*
X138785714Y-60452380D01*
X138452380Y-60833333D01*
X138595238Y-60833333D01*
X138690476Y-60880952D01*
X138738095Y-60928571D01*
X138785714Y-61023809D01*
X138785714Y-61261904D01*
X138738095Y-61357142D01*
X138690476Y-61404761D01*
X138595238Y-61452380D01*
X138309523Y-61452380D01*
X138214285Y-61404761D01*
X138166666Y-61357142D01*
%TO.C,C2*%
X141833333Y-36677142D02*
X141785714Y-36724761D01*
X141642857Y-36772380D01*
X141547619Y-36772380D01*
X141404761Y-36724761D01*
X141309523Y-36629523D01*
X141261904Y-36534285D01*
X141214285Y-36343809D01*
X141214285Y-36200952D01*
X141261904Y-36010476D01*
X141309523Y-35915238D01*
X141404761Y-35820000D01*
X141547619Y-35772380D01*
X141642857Y-35772380D01*
X141785714Y-35820000D01*
X141833333Y-35867619D01*
X142214285Y-35867619D02*
X142261904Y-35820000D01*
X142357142Y-35772380D01*
X142595238Y-35772380D01*
X142690476Y-35820000D01*
X142738095Y-35867619D01*
X142785714Y-35962857D01*
X142785714Y-36058095D01*
X142738095Y-36200952D01*
X142166666Y-36772380D01*
X142785714Y-36772380D01*
%TO.C,C1*%
X141833333Y-32677142D02*
X141785714Y-32724761D01*
X141642857Y-32772380D01*
X141547619Y-32772380D01*
X141404761Y-32724761D01*
X141309523Y-32629523D01*
X141261904Y-32534285D01*
X141214285Y-32343809D01*
X141214285Y-32200952D01*
X141261904Y-32010476D01*
X141309523Y-31915238D01*
X141404761Y-31820000D01*
X141547619Y-31772380D01*
X141642857Y-31772380D01*
X141785714Y-31820000D01*
X141833333Y-31867619D01*
X142785714Y-32772380D02*
X142214285Y-32772380D01*
X142500000Y-32772380D02*
X142500000Y-31772380D01*
X142404761Y-31915238D01*
X142309523Y-32010476D01*
X142214285Y-32058095D01*
%TO.C,U3*%
X133238095Y-39952380D02*
X133238095Y-40761904D01*
X133285714Y-40857142D01*
X133333333Y-40904761D01*
X133428571Y-40952380D01*
X133619047Y-40952380D01*
X133714285Y-40904761D01*
X133761904Y-40857142D01*
X133809523Y-40761904D01*
X133809523Y-39952380D01*
X134190476Y-39952380D02*
X134809523Y-39952380D01*
X134476190Y-40333333D01*
X134619047Y-40333333D01*
X134714285Y-40380952D01*
X134761904Y-40428571D01*
X134809523Y-40523809D01*
X134809523Y-40761904D01*
X134761904Y-40857142D01*
X134714285Y-40904761D01*
X134619047Y-40952380D01*
X134333333Y-40952380D01*
X134238095Y-40904761D01*
X134190476Y-40857142D01*
%TO.C,U2*%
X117407380Y-36761904D02*
X118216904Y-36761904D01*
X118312142Y-36714285D01*
X118359761Y-36666666D01*
X118407380Y-36571428D01*
X118407380Y-36380952D01*
X118359761Y-36285714D01*
X118312142Y-36238095D01*
X118216904Y-36190476D01*
X117407380Y-36190476D01*
X117502619Y-35761904D02*
X117455000Y-35714285D01*
X117407380Y-35619047D01*
X117407380Y-35380952D01*
X117455000Y-35285714D01*
X117502619Y-35238095D01*
X117597857Y-35190476D01*
X117693095Y-35190476D01*
X117835952Y-35238095D01*
X118407380Y-35809523D01*
X118407380Y-35190476D01*
%TO.C,U1*%
X128452380Y-46761904D02*
X129261904Y-46761904D01*
X129357142Y-46714285D01*
X129404761Y-46666666D01*
X129452380Y-46571428D01*
X129452380Y-46380952D01*
X129404761Y-46285714D01*
X129357142Y-46238095D01*
X129261904Y-46190476D01*
X128452380Y-46190476D01*
X129452380Y-45190476D02*
X129452380Y-45761904D01*
X129452380Y-45476190D02*
X128452380Y-45476190D01*
X128595238Y-45571428D01*
X128690476Y-45666666D01*
X128738095Y-45761904D01*
%TO.C,R4*%
X129438333Y-56802380D02*
X129105000Y-56326190D01*
X128866904Y-56802380D02*
X128866904Y-55802380D01*
X129247857Y-55802380D01*
X129343095Y-55850000D01*
X129390714Y-55897619D01*
X129438333Y-55992857D01*
X129438333Y-56135714D01*
X129390714Y-56230952D01*
X129343095Y-56278571D01*
X129247857Y-56326190D01*
X128866904Y-56326190D01*
X130295476Y-56135714D02*
X130295476Y-56802380D01*
X130057380Y-55754761D02*
X129819285Y-56469047D01*
X130438333Y-56469047D01*
%TO.C,R3*%
X129438333Y-53802380D02*
X129105000Y-53326190D01*
X128866904Y-53802380D02*
X128866904Y-52802380D01*
X129247857Y-52802380D01*
X129343095Y-52850000D01*
X129390714Y-52897619D01*
X129438333Y-52992857D01*
X129438333Y-53135714D01*
X129390714Y-53230952D01*
X129343095Y-53278571D01*
X129247857Y-53326190D01*
X128866904Y-53326190D01*
X129771666Y-52802380D02*
X130390714Y-52802380D01*
X130057380Y-53183333D01*
X130200238Y-53183333D01*
X130295476Y-53230952D01*
X130343095Y-53278571D01*
X130390714Y-53373809D01*
X130390714Y-53611904D01*
X130343095Y-53707142D01*
X130295476Y-53754761D01*
X130200238Y-53802380D01*
X129914523Y-53802380D01*
X129819285Y-53754761D01*
X129771666Y-53707142D01*
%TO.C,R2*%
X127102380Y-53166666D02*
X126626190Y-53500000D01*
X127102380Y-53738095D02*
X126102380Y-53738095D01*
X126102380Y-53357142D01*
X126150000Y-53261904D01*
X126197619Y-53214285D01*
X126292857Y-53166666D01*
X126435714Y-53166666D01*
X126530952Y-53214285D01*
X126578571Y-53261904D01*
X126626190Y-53357142D01*
X126626190Y-53738095D01*
X126197619Y-52785714D02*
X126150000Y-52738095D01*
X126102380Y-52642857D01*
X126102380Y-52404761D01*
X126150000Y-52309523D01*
X126197619Y-52261904D01*
X126292857Y-52214285D01*
X126388095Y-52214285D01*
X126530952Y-52261904D01*
X127102380Y-52833333D01*
X127102380Y-52214285D01*
%TO.C,R1*%
X127102380Y-62166666D02*
X126626190Y-62500000D01*
X127102380Y-62738095D02*
X126102380Y-62738095D01*
X126102380Y-62357142D01*
X126150000Y-62261904D01*
X126197619Y-62214285D01*
X126292857Y-62166666D01*
X126435714Y-62166666D01*
X126530952Y-62214285D01*
X126578571Y-62261904D01*
X126626190Y-62357142D01*
X126626190Y-62738095D01*
X127102380Y-61214285D02*
X127102380Y-61785714D01*
X127102380Y-61500000D02*
X126102380Y-61500000D01*
X126245238Y-61595238D01*
X126340476Y-61690476D01*
X126388095Y-61785714D01*
%TO.C,JP4*%
X119152380Y-27833333D02*
X119866666Y-27833333D01*
X120009523Y-27880952D01*
X120104761Y-27976190D01*
X120152380Y-28119047D01*
X120152380Y-28214285D01*
X120152380Y-27357142D02*
X119152380Y-27357142D01*
X119152380Y-26976190D01*
X119200000Y-26880952D01*
X119247619Y-26833333D01*
X119342857Y-26785714D01*
X119485714Y-26785714D01*
X119580952Y-26833333D01*
X119628571Y-26880952D01*
X119676190Y-26976190D01*
X119676190Y-27357142D01*
X119485714Y-25928571D02*
X120152380Y-25928571D01*
X119104761Y-26166666D02*
X119819047Y-26404761D01*
X119819047Y-25785714D01*
%TO.C,JP3*%
X106652380Y-21833333D02*
X107366666Y-21833333D01*
X107509523Y-21880952D01*
X107604761Y-21976190D01*
X107652380Y-22119047D01*
X107652380Y-22214285D01*
X107652380Y-21357142D02*
X106652380Y-21357142D01*
X106652380Y-20976190D01*
X106700000Y-20880952D01*
X106747619Y-20833333D01*
X106842857Y-20785714D01*
X106985714Y-20785714D01*
X107080952Y-20833333D01*
X107128571Y-20880952D01*
X107176190Y-20976190D01*
X107176190Y-21357142D01*
X106652380Y-20452380D02*
X106652380Y-19833333D01*
X107033333Y-20166666D01*
X107033333Y-20023809D01*
X107080952Y-19928571D01*
X107128571Y-19880952D01*
X107223809Y-19833333D01*
X107461904Y-19833333D01*
X107557142Y-19880952D01*
X107604761Y-19928571D01*
X107652380Y-20023809D01*
X107652380Y-20309523D01*
X107604761Y-20404761D01*
X107557142Y-20452380D01*
%TO.C,JP2*%
X155452380Y-37433333D02*
X156166666Y-37433333D01*
X156309523Y-37480952D01*
X156404761Y-37576190D01*
X156452380Y-37719047D01*
X156452380Y-37814285D01*
X156452380Y-36957142D02*
X155452380Y-36957142D01*
X155452380Y-36576190D01*
X155500000Y-36480952D01*
X155547619Y-36433333D01*
X155642857Y-36385714D01*
X155785714Y-36385714D01*
X155880952Y-36433333D01*
X155928571Y-36480952D01*
X155976190Y-36576190D01*
X155976190Y-36957142D01*
X155547619Y-36004761D02*
X155500000Y-35957142D01*
X155452380Y-35861904D01*
X155452380Y-35623809D01*
X155500000Y-35528571D01*
X155547619Y-35480952D01*
X155642857Y-35433333D01*
X155738095Y-35433333D01*
X155880952Y-35480952D01*
X156452380Y-36052380D01*
X156452380Y-35433333D01*
%TO.C,JP1*%
X153052380Y-37433333D02*
X153766666Y-37433333D01*
X153909523Y-37480952D01*
X154004761Y-37576190D01*
X154052380Y-37719047D01*
X154052380Y-37814285D01*
X154052380Y-36957142D02*
X153052380Y-36957142D01*
X153052380Y-36576190D01*
X153100000Y-36480952D01*
X153147619Y-36433333D01*
X153242857Y-36385714D01*
X153385714Y-36385714D01*
X153480952Y-36433333D01*
X153528571Y-36480952D01*
X153576190Y-36576190D01*
X153576190Y-36957142D01*
X154052380Y-35433333D02*
X154052380Y-36004761D01*
X154052380Y-35719047D02*
X153052380Y-35719047D01*
X153195238Y-35814285D01*
X153290476Y-35909523D01*
X153338095Y-36004761D01*
%TO.C,J1*%
X110682380Y-20103333D02*
X111396666Y-20103333D01*
X111539523Y-20150952D01*
X111634761Y-20246190D01*
X111682380Y-20389047D01*
X111682380Y-20484285D01*
X111682380Y-19103333D02*
X111682380Y-19674761D01*
X111682380Y-19389047D02*
X110682380Y-19389047D01*
X110825238Y-19484285D01*
X110920476Y-19579523D01*
X110968095Y-19674761D01*
%TO.C,D2*%
X137261904Y-58452380D02*
X137261904Y-57452380D01*
X137500000Y-57452380D01*
X137642857Y-57500000D01*
X137738095Y-57595238D01*
X137785714Y-57690476D01*
X137833333Y-57880952D01*
X137833333Y-58023809D01*
X137785714Y-58214285D01*
X137738095Y-58309523D01*
X137642857Y-58404761D01*
X137500000Y-58452380D01*
X137261904Y-58452380D01*
X138214285Y-57547619D02*
X138261904Y-57500000D01*
X138357142Y-57452380D01*
X138595238Y-57452380D01*
X138690476Y-57500000D01*
X138738095Y-57547619D01*
X138785714Y-57642857D01*
X138785714Y-57738095D01*
X138738095Y-57880952D01*
X138166666Y-58452380D01*
X138785714Y-58452380D01*
%TO.C,D1*%
X137261904Y-55452380D02*
X137261904Y-54452380D01*
X137500000Y-54452380D01*
X137642857Y-54500000D01*
X137738095Y-54595238D01*
X137785714Y-54690476D01*
X137833333Y-54880952D01*
X137833333Y-55023809D01*
X137785714Y-55214285D01*
X137738095Y-55309523D01*
X137642857Y-55404761D01*
X137500000Y-55452380D01*
X137261904Y-55452380D01*
X138785714Y-55452380D02*
X138214285Y-55452380D01*
X138500000Y-55452380D02*
X138500000Y-54452380D01*
X138404761Y-54595238D01*
X138309523Y-54690476D01*
X138214285Y-54738095D01*
%TD*%
M02*
