M48
; DRILL file {KiCad (5.1.10)-1} date 11/06/21 01:00:30
; FORMAT={-:-/ absolute / inch / decimal}
; #@! TF.CreationDate,2021-11-06T01:00:30+01:00
; #@! TF.GenerationSoftware,Kicad,Pcbnew,(5.1.10)-1
; #@! TF.FileFunction,Plated,1,2,PTH
FMAT,2
INCH
T1C0.0157
T2C0.0394
T3C0.0433
T4C0.1260
%
G90
G05
T1
X3.9921Y-1.5906
X3.9921Y-1.9606
X4.0079Y-1.6457
X4.0709Y-1.4016
X4.1024Y-1.4724
X4.1339Y-1.2126
X4.1417Y-1.4409
X4.189Y-1.2018
X4.189Y-2.2598
X4.2362Y-1.9843
X4.2515Y-1.1998
X4.2756Y-1.5984
X4.315Y-1.3465
X4.3543Y-1.186
X4.3622Y-0.9498
X4.5906Y-1.5906
X4.6457Y-1.3543
X4.6693Y-1.3071
X4.6693Y-1.5669
X4.7008Y-1.5276
X4.9528Y-1.4173
X4.9606Y-1.6929
X4.9843Y-2.2835
X4.9843Y-2.3701
X4.9921Y-2.4567
X5.0472Y-2.063
X5.1024Y-1.2913
X5.1811Y-0.9921
X5.2283Y-1.8898
X5.3228Y-1.622
X5.5827Y-1.1102
X5.5827Y-1.2411
X5.9449Y-1.3386
X6.0866Y-2.1024
T2
X4.3307Y-1.9921
X4.3307Y-2.0921
X4.3307Y-2.1921
X4.3307Y-2.2921
X4.3307Y-2.3921
X4.3307Y-2.4921
X4.4882Y-0.7283
X4.4882Y-0.8283
X4.5882Y-0.7283
X4.5882Y-0.8283
X4.6882Y-0.7283
X4.6882Y-0.8283
X4.7882Y-0.7283
X4.7882Y-0.8283
X4.8882Y-0.7283
X4.8882Y-0.8283
X5.4417Y-0.9449
X5.4417Y-1.8449
X5.5417Y-0.9449
X5.5417Y-1.8449
X5.6417Y-0.9449
X5.6417Y-1.8449
X5.7417Y-0.9449
X5.7417Y-1.8449
X5.8417Y-0.9449
X5.8417Y-1.8449
X5.9417Y-0.9449
X5.9417Y-1.8449
X6.0417Y-0.9449
X6.0417Y-1.8449
X6.1417Y-0.9449
X6.1417Y-1.8449
T3
X4.5276Y-2.0079
X4.5276Y-2.185
X4.5276Y-2.3228
X4.5276Y-2.5
X4.7835Y-2.0079
X4.7835Y-2.185
X4.7835Y-2.3228
X4.7835Y-2.5
T4
X4.0236Y-0.7559
X4.0236Y-2.4724
X6.0945Y-0.7559
X6.0945Y-2.4724
T2
G00X5.6299Y-2.2047
M15
G01X5.7087Y-2.2047
M16
G05
G00X5.6299Y-2.4409
M15
G01X5.7087Y-2.4409
M16
G05
G00X5.8543Y-2.3622
M15
G01X5.8543Y-2.2835
M16
G05
T0
M30
