%TF.GenerationSoftware,KiCad,Pcbnew,(5.1.10)-1*%
%TF.CreationDate,2021-11-06T01:00:33+01:00*%
%TF.ProjectId,xlAnchor,786c416e-6368-46f7-922e-6b696361645f,rev?*%
%TF.SameCoordinates,Original*%
%TF.FileFunction,Soldermask,Bot*%
%TF.FilePolarity,Negative*%
%FSLAX46Y46*%
G04 Gerber Fmt 4.6, Leading zero omitted, Abs format (unit mm)*
G04 Created by KiCad (PCBNEW (5.1.10)-1) date 2021-11-06 01:00:33*
%MOMM*%
%LPD*%
G01*
G04 APERTURE LIST*
%ADD10C,5.600000*%
%ADD11R,3.500000X3.500000*%
%ADD12O,1.700000X1.700000*%
%ADD13R,1.700000X1.700000*%
%ADD14C,1.000000*%
%ADD15O,1.600000X2.000000*%
%ADD16R,2.000000X2.000000*%
%ADD17C,2.000000*%
G04 APERTURE END LIST*
D10*
%TO.C,H4*%
X154800000Y-62800000D03*
%TD*%
%TO.C,H3*%
X102200000Y-19200000D03*
%TD*%
%TO.C,H2*%
X102200000Y-62800000D03*
%TD*%
%TO.C,H1*%
X154800000Y-19200000D03*
%TD*%
%TO.C,J3*%
G36*
G01*
X149575000Y-60750000D02*
X147825000Y-60750000D01*
G75*
G02*
X146950000Y-59875000I0J875000D01*
G01*
X146950000Y-58125000D01*
G75*
G02*
X147825000Y-57250000I875000J0D01*
G01*
X149575000Y-57250000D01*
G75*
G02*
X150450000Y-58125000I0J-875000D01*
G01*
X150450000Y-59875000D01*
G75*
G02*
X149575000Y-60750000I-875000J0D01*
G01*
G37*
G36*
G01*
X145000000Y-63500000D02*
X143000000Y-63500000D01*
G75*
G02*
X142250000Y-62750000I0J750000D01*
G01*
X142250000Y-61250000D01*
G75*
G02*
X143000000Y-60500000I750000J0D01*
G01*
X145000000Y-60500000D01*
G75*
G02*
X145750000Y-61250000I0J-750000D01*
G01*
X145750000Y-62750000D01*
G75*
G02*
X145000000Y-63500000I-750000J0D01*
G01*
G37*
D11*
X144000000Y-56000000D03*
%TD*%
D12*
%TO.C,J2*%
X110000000Y-63300000D03*
X110000000Y-60760000D03*
X110000000Y-58220000D03*
X110000000Y-55680000D03*
X110000000Y-53140000D03*
D13*
X110000000Y-50600000D03*
%TD*%
D14*
%TO.C,U2*%
X114820000Y-38435000D03*
%TD*%
D15*
%TO.C,U1*%
X156000000Y-46860000D03*
X153460000Y-46860000D03*
X150920000Y-46860000D03*
X148380000Y-46860000D03*
X145840000Y-46860000D03*
X143300000Y-46860000D03*
X140760000Y-46860000D03*
X138220000Y-46860000D03*
X138220000Y-24000000D03*
X140760000Y-24000000D03*
X143300000Y-24000000D03*
X145840000Y-24000000D03*
X148380000Y-24000000D03*
X150920000Y-24000000D03*
D16*
X156000000Y-24000000D03*
D15*
X153460000Y-24000000D03*
%TD*%
D17*
%TO.C,SW2*%
X121500000Y-51000000D03*
X121500000Y-55500000D03*
X115000000Y-51000000D03*
X115000000Y-55500000D03*
%TD*%
%TO.C,SW1*%
X121500000Y-59000000D03*
X121500000Y-63500000D03*
X115000000Y-59000000D03*
X115000000Y-63500000D03*
%TD*%
D12*
%TO.C,J1*%
X124160000Y-21040000D03*
X124160000Y-18500000D03*
X121620000Y-21040000D03*
X121620000Y-18500000D03*
X119080000Y-21040000D03*
X119080000Y-18500000D03*
X116540000Y-21040000D03*
X116540000Y-18500000D03*
X114000000Y-21040000D03*
D13*
X114000000Y-18500000D03*
%TD*%
M02*
